<svg viewBox="0 0 800 258" fill="none" xmlns="http://www.w3.org/2000/svg" class='w-full'>
<g clip-path="url(#clip0_1_15)">
<path d="M402.8 68.6C403.867 68.7333 404.867 69.3333 405.8 70.4C405.933 70.6667 405.733 70.8667 405.2 71C405.067 71 404.8 71.0667 404.4 71.2H404L402.8 71.8H403.2C403.467 71.8 403.6 71.8 403.6 71.8L402.4 72.2C402.133 72.3333 401.8 72.5333 401.4 72.8L401 73C400.2 73.4 399.733 73.5333 399.6 73.4C399.333 73.5333 398.933 73.6667 398.4 73.8C398 73.9333 397.6 74.1333 397.2 74.4C396.933 74.5333 396.733 74.6667 396.6 74.8C396.067 74.8 395.667 74.9333 395.4 75.2C395.133 75.4667 394.8 75.6 394.4 75.6C393.467 76 392.2 76.5333 390.6 77.2C389.133 77.8667 387.867 78.4 386.8 78.8C385.867 79.2 385.067 79.4667 384.4 79.6C383.867 80.1333 383.4 80.3333 383 80.2C382.2 80.3333 381.267 80.6667 380.2 81.2C379.267 81.6 378.333 82 377.4 82.4C376.6 82.8 375.8 83.2 375 83.6C374.333 83.8667 373.733 84 373.2 84C372.8 84 372.533 83.8 372.4 83.4L371.2 83.2C371.2 83.0667 371.333 82.9333 371.6 82.8C358.4 90.5333 348.133 95.4 340.8 97.4C336.267 99.2667 333.333 100.2 332 100.2C329.6 101.533 328.533 103.2 328.8 105.2C328.533 105.2 328.333 105.333 328.2 105.6C328.067 105.733 328.133 105.933 328.4 106.2C328.533 106.6 328.467 107.133 328.2 107.8C327.933 108.333 328 108.667 328.4 108.8C328.133 110 327.8 111.2 327.4 112.4C327 113.467 326.8 114.267 326.8 114.8C326.667 115.333 326.467 115.867 326.2 116.4C326.067 116.8 326 117 326 117C326.133 117.533 325.667 119.4 324.6 122.6C324.2 123.933 324.4 124.6 325.2 124.6C325.333 124.467 325.533 124.4 325.8 124.4C328.867 124 331.133 124.067 332.6 124.6C335 124.2 336.333 124.133 336.6 124.4C336.733 124.133 339.267 123.933 344.2 123.8L347.4 123.4C347.4 123.4 347.267 123.4 347 123.4C346.333 123.267 346.533 123.133 347.6 123C347.867 123 348.133 123.067 348.4 123.2C348.667 123.333 348.867 123.533 349 123.8C349.267 123.933 349.467 124 349.6 124C349.467 124.267 349.533 124.4 349.8 124.4C350.2 124.4 350.467 124.467 350.6 124.6C350.733 124.6 350.8 124.667 350.8 124.8C350.933 124.8 351.067 124.933 351.2 125.2C351.467 125.6 351.6 125.733 351.6 125.6C351.333 126.267 351.133 126.267 351 125.6C350.867 125.867 351 126.2 351.4 126.6C351.933 126.867 351.6 127.267 350.4 127.8C349.2 128.733 346.8 130.8 343.2 134C339.6 137.2 336.733 139.4 334.6 140.6C333.8 141 333 141.467 332.2 142C331.4 142.4 330.667 142.8 330 143.2C329.467 143.467 328.933 143.733 328.4 144C328.4 144.133 328.4 144.2 328.4 144.2C327.067 144.6 325.733 145.2 324.4 146C323.2 146.667 322.2 147.067 321.4 147.2C320.467 147.333 319.467 147.867 318.4 148.8C317.333 149.733 316.6 150.2 316.2 150.2C314.467 153 312.333 157.2 309.8 162.8C307.4 168.4 306.133 171.4 306 171.8C305.733 172.733 305.133 173.733 304.2 174.8C303.4 175.733 303.067 176.467 303.2 177C303.067 177.4 302.8 177.8 302.4 178.2C302 178.467 301.733 178.667 301.6 178.8C301.467 178.933 301.533 179.133 301.8 179.4C301.667 179.8 301.4 180.067 301 180.2C300.6 180.333 300.267 180.6 300 181C299.733 181.667 299.467 182.333 299.2 183C298.933 183.533 298.6 184 298.2 184.4C297.933 184.8 297.6 185.333 297.2 186C296.933 186.533 296.667 187.067 296.4 187.6C296 188.133 295.667 188.6 295.4 189C295.133 189.4 294.933 189.733 294.8 190C294.667 190.267 294.467 190.6 294.2 191C294.067 191.4 293.933 191.733 293.8 192C293.8 192.133 293.6 192.467 293.2 193C292.933 193.4 292.733 193.867 292.6 194.4C292.467 194.8 292.4 195.133 292.4 195.4C292.933 195.267 293.2 195.267 293.2 195.4C292.933 195.933 292.667 196.133 292.4 196C292.133 195.733 292 195.667 292 195.8C291.867 196.2 291.867 196.4 292 196.4L292.6 196.6C292.2 197.667 291.867 197.933 291.6 197.4C291.467 197.133 291.333 197.067 291.2 197.2C291.2 197.333 291.333 197.533 291.6 197.8C292 198.2 292 198.467 291.6 198.6C291.333 198.867 291.2 199.2 291.2 199.6C291.2 199.867 290.933 199.8 290.4 199.4V201L290.2 200.8C289.933 200.933 289.8 201 289.8 201C290.333 201.4 290.333 201.667 289.8 201.8C289.4 201.8 289.267 201.867 289.4 202C289.267 202.267 289.067 202.667 288.8 203.2C288.533 203.6 288.333 203.933 288.2 204.2C288.2 204.333 288.133 204.667 288 205.2C287.867 205.6 287.867 205.933 288 206.2C288.267 206.2 288.4 206.067 288.4 205.8C288.533 205.667 288.8 205.6 289.2 205.6C289.733 205.467 290.067 205.533 290.2 205.8C289.8 205.4 289.667 205.067 289.8 204.8C289.933 204.4 290.067 204.133 290.2 204C290.467 203.867 290.8 203.733 291.2 203.6C291.6 203.333 291.867 203.133 292 203C292.667 202.867 293.267 202.4 293.8 201.6C294.467 200.8 294.933 200.333 295.2 200.2C295.467 200.2 295.667 200.067 295.8 199.8C296.067 199.533 296.2 199.333 296.2 199.2C296.333 199.067 296.533 199.067 296.8 199.2C297.067 198.8 297.267 198.533 297.4 198.4C297.667 198.267 298 198.2 298.4 198.2C298.8 198.2 299.067 198.2 299.2 198.2C299.467 197.267 300.2 196.6 301.4 196.2C302.6 195.667 303.133 194.933 303 194C303 194.133 302.933 194.2 302.8 194.2C302.933 194.067 303 194.133 303 194.4C303.133 194.667 303.133 194.8 303 194.8C303.267 194.8 303.4 194.733 303.4 194.6C303.4 194.333 303.4 194.2 303.4 194.2C303.8 194.067 304 194 304 194C304.133 194.267 304.267 194.267 304.4 194C304.533 193.6 304.733 193.467 305 193.6C304.867 193.2 305.133 192.867 305.8 192.6C306.467 192.2 306.8 192 306.8 192C308.667 189.467 310.333 188 311.8 187.6C312.067 187.467 312.333 187.2 312.6 186.8C313 186.267 313.333 186 313.6 186C314.8 184.933 315.4 184.4 315.4 184.4C315.667 184.267 315.8 184.2 315.8 184.2C315.933 183.933 316.267 183.8 316.8 183.8C316.8 183.8 316.867 183.667 317 183.4C317.133 183.133 317.2 183 317.2 183C317.333 182.867 317.533 182.867 317.8 183C317.933 182.333 318.267 181.867 318.8 181.6L319 181.4H319.2C320 180.733 320.733 180.4 321.4 180.4C321.8 180 322.267 179.467 322.8 178.8C323.333 178.267 323.6 178.2 323.6 178.6C325.2 176.333 326.667 175.2 328 175.2C328.267 175.2 328.4 175.267 328.4 175.4V175.2C328 174.8 328.2 174.467 329 174.2C329.8 173.933 330 173.533 329.6 173C330.667 172.867 331.2 172.867 331.2 173C331.067 172.6 331.067 172.333 331.2 172.2C331.467 171.933 331.733 171.8 332 171.8C332.267 171.667 332.4 171.533 332.4 171.4C332.4 171 332.667 170.733 333.2 170.6C333.733 170.467 334 170.4 334 170.4C334.4 170.133 334.8 169.867 335.2 169.6C335.6 169.2 335.933 168.933 336.2 168.8C336.467 168.533 336.733 168.4 337 168.4C338.867 167.067 340.333 166 341.4 165.2C341.8 164.933 342.133 164.667 342.4 164.4C342.667 164.133 342.933 163.933 343.2 163.8C343.467 163.667 343.667 163.533 343.8 163.4C344.067 163.267 344.333 163.067 344.6 162.8C344.867 162.533 345.133 162.267 345.4 162C346.467 161.867 347.133 161.533 347.4 161C347.8 160.467 348.2 160.2 348.6 160.2C348.733 159.667 348.933 159.4 349.2 159.4C349.467 159.4 349.6 159.333 349.6 159.2C351.467 157.867 352.467 157.2 352.6 157.2C352.733 156.933 352.933 156.667 353.2 156.4C353.467 156 353.667 155.733 353.8 155.6C354.467 155.2 355.267 155.133 356.2 155.4C357.133 155 357.733 155.333 358 156.4C356.533 157.733 355.733 158.4 355.6 158.4C355.6 158.267 355.6 158.133 355.6 158C355.067 158.533 354.6 159.133 354.2 159.8C353.933 160.333 353.667 160.667 353.4 160.8C353.4 161.067 353.067 161.4 352.4 161.8C351.733 162.2 351.4 162.4 351.4 162.4C351.4 162.533 351.467 162.667 351.6 162.8C351.733 162.933 351.667 163 351.4 163C351 163.133 350.6 163.6 350.2 164.4C348.467 166.533 346.933 168 345.6 168.8V169.4C345.6 169.533 345.533 169.667 345.4 169.8C344.733 170.733 344.333 171.067 344.2 170.8C343.933 170.533 343.8 170.4 343.8 170.4C343.667 170.4 343.6 170.533 343.6 170.8C343.733 170.933 343.733 171 343.6 171L343.2 170.6L343.4 171.6V172C343.267 172 343.067 172.2 342.8 172.6C342.533 172.867 342.2 173.2 341.8 173.6C341.533 174 341.2 174.267 340.8 174.4C340.667 174.533 340.467 174.733 340.2 175C340.067 175.133 339.933 175.333 339.8 175.6C339.667 175.733 339.533 175.8 339.4 175.8C336.333 180.067 333 183 329.4 184.6C328.733 183.933 328.4 183.8 328.4 184.2C328.4 184.467 328.333 184.667 328.2 184.8C328.2 184.933 328.333 185.067 328.6 185.2C329.133 185.733 329.267 186.133 329 186.4C328.2 187.2 327.8 187.6 327.8 187.6C327.533 188.267 327.333 188.267 327.2 187.6C327.067 187.467 327 187.333 327 187.2L326.8 187.6C326.933 188.4 326.867 188.867 326.6 189C326.333 189 326.133 189.133 326 189.4C325.6 189.533 324.933 190 324 190.8C323.2 191.467 322.6 191.8 322.2 191.8C321.933 191.933 321.8 192 321.8 192C321.533 191.6 321.4 191.667 321.4 192.2C321.267 191.933 321.2 192 321.2 192.4C321.067 193.067 320.933 193.4 320.8 193.4C320.4 193.667 320.133 193.533 320 193C320.4 194.067 320.467 194.8 320.2 195.2C319.933 195.6 319.267 196.133 318.2 196.8C317.267 197.467 316.667 197.867 316.4 198C316 198.267 315.667 198.533 315.4 198.8C315.133 199.067 314.8 199.4 314.4 199.8C314.133 200.2 313.867 200.533 313.6 200.8C313.333 201.067 313.067 201.267 312.8 201.4C312.4 201.667 312 201.933 311.6 202.2C311.2 202.467 310.933 202.667 310.8 202.8C310.667 202.8 310.533 202.933 310.4 203.2C310.267 203.333 310.133 203.533 310 203.8C309.467 203.933 309.067 204.2 308.8 204.6C308.533 205 308.4 205.267 308.4 205.4C305.467 207.8 302.933 209.467 300.8 210.4C300.667 210.533 300.667 210.667 300.8 210.8C300.533 210.933 300.333 210.933 300.2 210.8C299.8 210.267 299.733 209.933 300 209.8C300.267 209.667 300.467 209.867 300.6 210.4C300.733 209.6 300.6 209.2 300.2 209.2C299.933 209.2 299.533 209.333 299 209.6C298.467 209.867 298.2 210 298.2 210C296.867 210.8 296.133 211.333 296 211.6C296.4 211.6 296.4 211.933 296 212.6C295.867 213.133 295.933 213.4 296.2 213.4C296.2 213.267 296.333 213.133 296.6 213L297.4 212.4C298.067 211.733 298.667 211.667 299.2 212.2C299.6 212.467 299.467 212.733 298.8 213C298.267 213.4 297.333 213.867 296 214.4C294.667 215.067 293.733 215.8 293.2 216.6C292.933 217 291.533 217.733 289 218.8C288.467 219.067 288.4 219.267 288.8 219.4C288.667 219.933 288.333 220 287.8 219.6C287.267 219.2 287 219 287 219C287.533 219.933 287.333 220.467 286.4 220.6C285.6 220.867 285.2 221.067 285.2 221.2C285.867 221.067 286.267 221.067 286.4 221.2C286.533 221.333 286.4 221.467 286 221.6C285.6 221.867 285.267 222 285 222C284.6 222 283.667 222.2 282.2 222.6C280.733 223.133 279.933 223.067 279.8 222.4C279.933 222.8 279.933 223.067 279.8 223.2C279.667 223.333 279.533 223.4 279.4 223.4C279.4 223.4 279.333 223.4 279.2 223.4C278.933 223 278.4 222.667 277.6 222.4C276.933 222.133 276.533 221.867 276.4 221.6C271.2 221.6 267.933 220.8 266.6 219.2C265.267 217.733 265.333 214.867 266.8 210.6C266.4 210.333 266.333 209.733 266.6 208.8C266.867 207.733 267 207.133 267 207C267.133 206.6 267.333 206.133 267.6 205.6C267.733 205.067 267.8 204.8 267.8 204.8C268.733 202.133 270.133 197.533 272 191C273.2 187.933 273.867 186.333 274 186.2C273.867 185.667 273.8 185.333 273.8 185.2C273.933 184.933 274.067 184.6 274.2 184.2C274.467 183.667 274.6 183.333 274.6 183.2C279 171.067 281.6 164.267 282.4 162.8C281.733 162.4 281.4 162.133 281.4 162V161.6C280.733 161.467 280.267 161.333 280 161.2C279.733 160.933 279.467 160.533 279.2 160C278.933 159.467 278.6 159.067 278.2 158.8C277.8 158.533 276.867 158.133 275.4 157.6C273.933 157.067 272.867 156.533 272.2 156C271.533 155.467 271.467 154.867 272 154.2C272.267 153.667 272.2 153.533 271.8 153.8L270.6 154.8C268.867 153.333 268 152.533 268 152.4C267.867 152.133 267.667 151.8 267.4 151.4C266.733 150.467 266.667 149.867 267.2 149.6C267.2 149.333 267.333 149.067 267.6 148.8C267.733 148.4 267.8 148.133 267.8 148C268.067 147.2 268.8 146.4 270 145.6C271.2 144.667 272 143.933 272.4 143.4C272.4 143 272.733 142.6 273.4 142.2C274.067 141.8 274.4 141.533 274.4 141.4C274.533 141.133 274.733 141 275 141C275.133 141 275.2 140.933 275.2 140.8C281.067 137.2 285.933 134.933 289.8 134C289.933 133.733 290.133 133.6 290.4 133.6C290.8 133.467 291.2 133.4 291.6 133.4C292.133 133.267 292.467 133.133 292.6 133C293.533 132.6 294.133 131.8 294.4 130.6C294.667 129.4 294.867 128.733 295 128.6C296.067 126.6 296.667 125.2 296.8 124.4C296.933 124.267 297 124.067 297 123.8C297.133 123.533 297.2 123.333 297.2 123.2C297.2 122.933 297.267 122.8 297.4 122.8C298.333 121.067 299.267 118.6 300.2 115.4C301.267 112.2 302.133 109.8 302.8 108.2C302.133 108.333 301.267 108.2 300.2 107.8C299.267 107.4 298.6 107.267 298.2 107.4C296.867 107.8 295.733 107.733 294.8 107.2C294 106.667 293.267 105.867 292.6 104.8C291.933 103.6 291.4 102.8 291 102.4C290.733 101.867 290.333 101.467 289.8 101.2C289.267 100.8 288.667 100.467 288 100.2C287.333 99.9333 286.867 99.6 286.6 99.2C285.667 98.4 284.933 97.7333 284.4 97.2C284 96.6667 283.6 96.2 283.2 95.8C282.8 95.4 282.733 95 283 94.6C283.267 94.0667 283.4 93.7333 283.4 93.6C283.533 93.3333 283.933 92.8 284.6 92C285.4 91.0667 286 90.4 286.4 90C286.533 89.8667 286.667 89.7333 286.8 89.6C288.267 89.2 289.067 88.9333 289.2 88.8C289.733 88.5333 290.133 88.3333 290.4 88.2C290.8 88.0667 291.133 88 291.4 88C291.667 87.8667 291.867 87.7333 292 87.6C292.533 87.4667 292.933 87.2667 293.2 87C293.467 86.7333 293.667 86.6 293.8 86.6C295 87.1333 295.867 87.1333 296.4 86.6C297.067 86.0667 297.733 85.8667 298.4 86C299.067 85.7333 299.067 85.5333 298.4 85.4C298.533 84.8667 298.8 84.5333 299.2 84.4C299.733 84.2667 300.2 84.3333 300.6 84.6C301 84.7333 301.2 84.9333 301.2 85.2L301.6 85C301.6 84.6 301.8 84.2667 302.2 84C302.6 83.6 303.067 83.3333 303.6 83.2C304.133 82.9333 304.733 82.7333 305.4 82.6C306.2 82.3333 306.867 82.1333 307.4 82C307.933 81.8667 308.4 81.8 308.8 81.8C309.333 81.6667 309.6 81.6 309.6 81.6C314.133 80.2667 317.267 79.6 319 79.6C320.067 79.4667 322 78.8 324.8 77.6C330.8 76.9333 334.267 76.4667 335.2 76.2C335.2 76.7333 335.533 76.9333 336.2 76.8L336.4 76.6C336.8 76.8667 337.4 77 338.2 77C339.133 76.8667 339.667 76.8667 339.8 77C341 75.6667 343.133 75.1333 346.2 75.4C346.2 75.8 346.333 75.9333 346.6 75.8C346.867 75.5333 347 75.4667 347 75.6C347.133 75.6 347.333 75.6667 347.6 75.8C348 75.8 348.267 75.8667 348.4 76C348.533 75.8667 348.733 75.6667 349 75.4C349.267 75.1333 349.467 74.9333 349.6 74.8C349.867 74.6667 350.133 74.5333 350.4 74.4C350.667 74.2667 350.867 74.2667 351 74.4C351.267 74.4 351.467 74.5333 351.6 74.8C353.067 74.1333 354.867 73.6667 357 73.4C359.267 73.1333 361 73.1333 362.2 73.4C362.333 73.4 362.467 73.4667 362.6 73.6C362.733 73.2 363.133 72.8667 363.8 72.6C364.467 72.3333 364.933 72.3333 365.2 72.6C366.4 73 367 73.2 367 73.2C367.267 72.9333 367.667 72.6667 368.2 72.4C368.733 72 369.2 71.8 369.6 71.8C369.867 71.6667 370.2 71.6 370.6 71.6C371 71.4667 371.333 71.4667 371.6 71.6C371.867 71.6 372.067 71.6667 372.2 71.8C372.467 71.8 372.667 71.8 372.8 71.8C373.067 71.8 373.733 71.6667 374.8 71.4C375.867 71 376.6 70.8667 377 71C377.933 71.4 378.6 71.4667 379 71.2C379.4 70.8 379.867 70.6 380.4 70.6C382.533 70.6 384.467 70.5333 386.2 70.4C387.933 70.1333 389.333 70.0667 390.4 70.2C390.8 70.7333 391.467 70.8 392.4 70.4V70C392.133 69.4667 392.267 69.3333 392.8 69.6C393.733 70.1333 394.2 70.4 394.2 70.4C394.2 70.4 394.133 70.3333 394 70.2C393.067 69.8 393.067 69.6 394 69.6C394.4 69.6 394.733 69.6 395 69.6C395.267 69.3333 396.267 69.1333 398 69C399.867 68.8667 400.933 68.7333 401.2 68.6C401.2 68.7333 401.267 68.7333 401.4 68.6C401.8 68.7333 402 68.7333 402 68.6C402.133 68.4667 402.4 68.4667 402.8 68.6ZM299.6 85.6C299.733 85.6 299.8 85.6 299.8 85.6H299.6ZM356 157.2C355.867 157.2 355.8 157.2 355.8 157.2H356ZM352.6 159.4H352.4C352.133 159.667 352.067 159.8 352.2 159.8C352.2 159.8 352.333 159.667 352.6 159.4ZM351 159.6V159.4V159.6ZM350.6 161.6C350.6 161.6 350.533 161.733 350.4 162C350.267 162.133 350.2 162.2 350.2 162.2L352.4 160H352.2L350.6 161.6ZM328.2 185.8C328.2 185.667 328.2 185.6 328.2 185.6C328.2 185.6 328.133 185.6 328 185.6L328.2 185.8ZM320.8 180.8C320.533 180.667 320.4 180.6 320.4 180.6V181H320.6L320.8 180.8ZM318.2 186.8L319.4 185.4C319.4 185.4 319.267 185.467 319 185.6C318.2 186.267 317.933 186.667 318.2 186.8ZM318.6 191C317.933 191.267 317.467 191.667 317.2 192.2C317.2 192.333 317.267 192.4 317.4 192.4C318.067 192.133 318.467 191.667 318.6 191ZM315.8 193.4C315.667 193.4 315.533 193.533 315.4 193.8C315.267 193.933 315.2 194 315.2 194L315.4 194.2L316.4 193.2C316.267 193.2 316.067 193.267 315.8 193.4ZM295 214.2C295.667 213.667 295.933 213.4 295.8 213.4C295.667 213.4 295.267 213.467 294.6 213.6C294.467 213.867 294.6 214.067 295 214.2ZM348.4 123.6C348.4 123.467 348.333 123.333 348.2 123.2L348.4 123.6ZM337.2 132.6L337.4 132.4L337.2 132.6ZM337 132.2C337 132.067 337 132 337 132C337 132 336.933 132 336.8 132L337 132.2ZM336 132.8V133C336.133 133 336.133 132.933 336 132.8ZM369.6 75.4V75.2C369.467 75.2 369.467 75.2667 369.6 75.4ZM369.6 75C369.467 75 369.4 75 369.4 75H369.6ZM368.4 82.2C368.533 82.0667 368.667 82 368.8 82C368.8 81.2 368.467 81.0667 367.8 81.6C367.533 81.7333 367.533 81.8667 367.8 82C367.933 82.1333 368.133 82.2 368.4 82.2ZM372.6 74.8H372.4H372.6ZM374.4 74.4L374.2 74.6L374.4 74.4ZM376 74.2C376.133 74.3333 376.2 74.4 376.2 74.4L376 74.2ZM378.8 74H379H378.8ZM381.4 73.6L383 73.4C383.667 73.4 384 73.4 384 73.4L384.4 73.2C383.733 73.2 382.733 73.3333 381.4 73.6ZM458.691 121.2C458.557 121.6 458.491 121.867 458.491 122C458.624 122.133 458.757 122.267 458.891 122.4C459.024 122.533 459.091 122.667 459.091 122.8C459.224 123.733 459.024 125 458.491 126.6C458.091 128.2 457.957 129.467 458.091 130.4C457.557 130.933 457.291 131.267 457.291 131.4C457.157 131.933 456.957 132.533 456.691 133.2C456.424 133.867 456.157 134.533 455.891 135.2C455.624 135.733 455.424 136.2 455.291 136.6C453.691 139.533 452.491 142 451.691 144C451.424 144.4 451.091 145.067 450.691 146C450.291 146.933 449.957 147.533 449.691 147.8C449.424 148.2 447.891 151.4 445.091 157.4C443.491 160.2 441.357 164.4 438.691 170C436.024 175.467 433.824 179.6 432.091 182.4C431.157 184.933 428.757 190.667 424.891 199.6C421.157 208.533 418.557 215.133 417.091 219.4C416.957 219.667 416.091 221.933 414.491 226.2C414.357 227 414.024 228.067 413.491 229.4C412.157 232.467 411.091 235.267 410.291 237.8C410.291 237.8 410.224 237.867 410.091 238C409.957 238.267 409.824 238.533 409.691 238.8C409.557 239.067 409.424 239.267 409.291 239.4C409.291 239.667 409.224 239.867 409.091 240C409.091 240.133 409.091 240.267 409.091 240.4C407.357 244.267 406.491 246.467 406.491 247C406.091 247.267 405.691 247.667 405.291 248.2C405.024 248.867 405.157 249.2 405.691 249.2C405.424 249.467 405.157 249.733 404.891 250C404.757 250.267 404.624 250.467 404.491 250.6C404.491 250.867 404.424 251.067 404.291 251.2C404.291 251.6 404.157 252.067 403.891 252.6C403.757 253.133 403.624 253.467 403.491 253.6C403.491 253.733 403.424 253.867 403.291 254C403.291 253.867 403.291 253.8 403.291 253.8C403.291 253.933 403.224 254.133 403.091 254.4C402.957 255.2 402.691 255.667 402.291 255.8C402.291 255.8 402.091 256.333 401.691 257.4H401.891C401.757 257.4 401.424 257.867 400.891 258.8L400.491 259.6C400.357 259.467 400.291 259.2 400.291 258.8C400.291 258.8 400.291 258.667 400.291 258.4C400.424 258.267 400.491 258 400.491 257.6C400.491 257.333 400.491 257 400.491 256.6C400.491 256.333 400.491 256.067 400.491 255.8C400.624 255.533 400.691 255.333 400.691 255.2L400.291 255.4C400.557 255.133 400.691 254.733 400.691 254.2L400.891 254C400.757 253.733 400.691 253.4 400.691 253C400.557 252.6 400.424 252.4 400.291 252.4C400.291 252.533 400.291 252.6 400.291 252.6C400.157 252.733 400.091 252.867 400.091 253C399.957 253.133 399.824 253.467 399.691 254C399.691 254.533 399.691 254.933 399.691 255.2C399.691 255.6 399.757 255.8 399.891 255.8C399.624 256.067 399.424 256 399.291 255.6L399.491 255.2L399.291 255C399.157 254.867 399.091 254.8 399.091 254.8C399.091 254.933 399.024 255 398.891 255C398.624 255.267 398.624 256 398.891 257.2C398.891 257.333 398.824 257.533 398.691 257.8C398.691 258.067 398.691 258.267 398.691 258.4C398.557 258.133 398.491 257.267 398.491 255.8C398.491 254.467 398.357 253.733 398.091 253.6L398.291 253.4C398.024 251.933 397.891 251.067 397.891 250.8C399.891 233.333 403.024 216.933 407.291 201.6C407.291 200.933 407.957 198.733 409.291 195C409.291 194.733 409.224 194.533 409.091 194.4C408.691 194.8 408.491 195 408.491 195C408.491 195 408.424 195.2 408.291 195.6C408.157 196 408.024 196.267 407.891 196.4C407.891 196.533 407.757 196.733 407.491 197C407.357 197.267 407.157 197.467 406.891 197.6C406.624 197.733 406.357 197.867 406.091 198H405.891C404.957 199.2 404.224 199.733 403.691 199.6C403.557 200.133 403.291 200.667 402.891 201.2C402.491 201.6 401.957 202.067 401.291 202.6C400.624 203.133 400.224 203.4 400.091 203.4C399.557 203.8 398.824 204.4 397.891 205.2C396.957 206 396.091 206.6 395.291 207C394.624 207.4 393.957 207.6 393.291 207.6C392.757 208.4 391.557 209.4 389.691 210.6C387.957 211.667 387.024 212.267 386.891 212.4L384.891 213.4H385.091C385.891 213.667 385.891 213.933 385.091 214.2C384.291 214.467 383.757 214.4 383.491 214C383.224 214.267 382.891 214.4 382.491 214.4C383.557 215.067 383.224 215.533 381.491 215.8C381.224 215.8 380.891 215.8 380.491 215.8C379.824 215.933 379.491 216 379.491 216C378.957 215.867 378.424 216.067 377.891 216.6C377.491 216.733 376.824 216.8 375.891 216.8C375.091 216.933 374.624 217 374.491 217C373.957 217.4 372.957 217.2 371.491 216.4C370.157 215.733 369.491 215.4 369.491 215.4C368.824 215 368.157 214.667 367.491 214.4C366.957 214.267 366.224 214.133 365.291 214C364.491 214 363.957 214 363.691 214C362.091 213.6 361.091 213.4 360.691 213.4C358.424 211.667 356.957 210.4 356.291 209.6C356.291 209.333 356.224 209.133 356.091 209C355.291 207.533 354.891 206.533 354.891 206C354.491 204.533 354.157 203.067 353.891 201.6C353.624 200.133 353.491 198.533 353.491 196.8C353.491 194.933 353.557 193.4 353.691 192.2C353.691 191 353.891 189.333 354.291 187.2C354.557 185.067 354.757 183.667 354.891 183C354.891 182.2 355.157 180.6 355.691 178.2C356.091 175.8 356.357 174.4 356.491 174C357.291 170.933 357.691 169.2 357.691 168.8C357.957 168.133 358.224 167 358.491 165.4C358.757 163.8 359.024 162.6 359.291 161.8C359.691 160.867 360.091 160.267 360.491 160C359.957 159.733 359.957 158.8 360.491 157.2C361.024 155.6 361.291 154.733 361.291 154.6C361.557 154.067 361.757 153.533 361.891 153C362.024 152.333 362.091 151.733 362.091 151.2C362.224 150.667 362.357 150.2 362.491 149.8C362.624 149.533 362.757 149.2 362.891 148.8V148.6C362.891 148.6 362.891 148.533 362.891 148.4C363.291 147.2 363.957 145.333 364.891 142.8C365.957 140.133 366.691 138.2 367.091 137C367.624 136.2 367.891 135.533 367.891 135C368.291 134.067 368.891 132.867 369.691 131.4C370.491 129.8 371.024 128.6 371.291 127.8C371.291 127.667 371.357 127.6 371.491 127.6C372.824 124.4 375.024 120.133 378.091 114.8C381.291 109.333 383.424 105.533 384.491 103.4C385.291 102.6 385.757 102.267 385.891 102.4C386.291 102 386.424 101.667 386.291 101.4C386.291 101.267 386.357 101.2 386.491 101.2C386.491 100.267 386.824 99.5333 387.491 99C388.157 98.3333 388.424 97.8 388.291 97.4C388.691 96.6 389.291 95.6667 390.091 94.6C390.891 93.4 391.424 92.5333 391.691 92C395.024 86.4 398.024 82.5333 400.691 80.4C400.957 79.8667 401.557 79.1333 402.491 78.2C403.424 77.2667 404.157 76.4667 404.691 75.8C405.224 75 405.224 74.4667 404.691 74.2C405.491 73.6667 406.557 72.5333 407.891 70.8C409.224 68.9333 410.357 67.8667 411.291 67.6C411.291 67.6 411.424 67.4 411.691 67C411.957 66.4667 412.157 66.2 412.291 66.2C412.424 66.2 412.757 66.2 413.291 66.2C413.024 63.8 414.491 63.1333 417.691 64.2C419.557 64.8667 420.757 65.6667 421.291 66.6C421.824 67 422.224 67.0667 422.491 66.8C422.757 66.5333 422.957 66.4 423.091 66.4C423.757 66.2667 424.624 66.4 425.691 66.8C426.757 67.2 427.357 67.4 427.491 67.4C427.891 67.5333 429.024 67.8 430.891 68.2C432.757 68.4667 434.091 68.8667 434.891 69.4C437.691 70.2 441.357 72.2667 445.891 75.6L444.891 75.8C445.157 76.0667 445.491 76.5333 445.891 77.2C446.424 77.8667 446.757 78.2667 446.891 78.4C447.024 78.4 447.357 78.2667 447.891 78V77.6V77C447.891 77 447.891 77.0667 447.891 77.2C448.557 77.4667 449.091 78 449.491 78.8C449.757 80.9333 450.091 82.2 450.491 82.6C450.491 83.4 450.291 84.6 449.891 86.2C449.491 87.6667 449.291 88.6667 449.291 89.2C449.691 92.2667 448.624 95.5333 446.091 99C445.557 101.8 444.024 103.2 441.491 103.2C441.357 103.467 441.224 103.867 441.091 104.4C440.957 104.8 440.757 105.067 440.491 105.2C440.357 105.333 439.957 105.467 439.291 105.6C438.491 106 437.757 106.267 437.091 106.4C436.557 106.4 435.891 106.333 435.091 106.2C434.291 106.067 433.757 106 433.491 106C432.691 105.467 432.291 105.133 432.291 105L433.491 104.6L433.091 104.8C432.824 104.533 432.691 104.467 432.691 104.6C432.291 104.6 432.024 104.6 431.891 104.6H431.691L433.091 104.2C433.757 103.667 433.891 103.4 433.491 103.4C433.091 103.4 432.824 103.533 432.691 103.8C432.557 103.533 432.557 103.333 432.691 103.2C432.824 103.067 432.891 103 432.891 103C432.891 102.867 432.891 102.733 432.891 102.6C433.024 102.2 432.957 101.933 432.691 101.8C432.557 101.667 432.624 101.333 432.891 100.8L432.491 101.8L431.891 103.2C431.357 104.667 430.891 105 430.491 104.2C430.357 103.933 430.357 103.733 430.491 103.6C430.091 103.6 429.891 103.533 429.891 103.4C428.957 102.2 428.557 101.6 428.691 101.6C428.691 101.467 428.824 101.4 429.091 101.4C428.957 101.267 428.824 101.067 428.691 100.8C428.157 101.467 427.424 101 426.491 99.4C425.957 99.1333 425.491 98.7333 425.091 98.2C424.691 97.6667 424.291 97.1333 423.891 96.6C423.624 95.9333 423.357 95.4667 423.091 95.2C422.824 94.8 422.757 94.4 422.891 94C423.157 93.6 423.291 93.3333 423.291 93.2C422.357 93.2 421.624 93.5333 421.091 94.2C420.691 94.8667 420.557 95.5333 420.691 96.2C420.157 96.4667 419.691 96.7333 419.291 97C419.024 97.2667 418.757 97.6 418.491 98C418.224 98.2667 418.024 98.5333 417.891 98.8C417.624 98.9333 417.291 99.0667 416.891 99.2C416.491 99.3333 416.157 99.4667 415.891 99.6C415.757 99.7333 415.624 99.9333 415.491 100.2C415.357 100.333 415.357 100.533 415.491 100.8C414.424 101.6 413.491 102.4 412.691 103.2C411.891 103.867 411.291 104.467 410.891 105C410.491 105.4 409.891 106.133 409.091 107.2C408.291 108.133 407.624 108.8 407.091 109.2C406.824 109.6 406.491 109.933 406.091 110.2C405.824 110.333 405.624 110.4 405.491 110.4C405.357 110.4 405.224 110.533 405.091 110.8C405.091 110.933 405.024 111.2 404.891 111.6C404.757 112.267 404.357 112.867 403.691 113.4C403.024 113.933 402.624 114.333 402.491 114.6C399.824 117.533 397.357 120.467 395.091 123.4C392.957 126.333 390.891 129.467 388.891 132.8C386.891 136.133 385.357 138.8 384.291 140.8C383.224 142.8 381.691 145.733 379.691 149.6C377.691 153.467 376.424 156.067 375.891 157.4C374.957 159.533 374.424 161.067 374.291 162C374.024 162.667 373.824 163.333 373.691 164C373.691 164.667 373.624 165.133 373.491 165.4C373.491 165.667 373.424 166 373.291 166.4C373.157 166.667 373.024 166.933 372.891 167.2C372.757 167.467 372.624 167.733 372.491 168C372.491 168.267 372.491 168.467 372.491 168.6C372.224 169.933 371.624 171.867 370.691 174.4C369.757 176.8 369.291 178.4 369.291 179.2C369.424 179.333 369.424 179.6 369.291 180C369.157 180.267 369.091 180.467 369.091 180.6C368.957 180.6 368.891 180.4 368.891 180C369.024 179.6 369.024 179.4 368.891 179.4C368.757 180.067 368.757 180.733 368.891 181.4C369.024 181.933 369.024 182.333 368.891 182.6L368.491 182.8V183L368.691 183.2C368.957 183.6 368.891 183.8 368.491 183.8V184C368.091 185.067 367.957 186 368.091 186.8C367.291 190.267 367.024 193.133 367.291 195.4C367.557 195.533 367.624 195.6 367.491 195.6C367.224 196 367.157 196.4 367.291 196.8C367.557 197.2 367.624 197.467 367.491 197.6C367.624 200.8 367.824 203.067 368.091 204.4C368.357 205.6 368.624 206.267 368.891 206.4C369.157 206.4 369.824 206.067 370.891 205.4C372.091 204.6 373.024 204.067 373.691 203.8C373.824 203.667 373.891 203.533 373.891 203.4C374.024 203.133 374.157 203 374.291 203C374.424 202.867 374.491 202.8 374.491 202.8C379.291 198 382.557 195.067 384.291 194C384.557 193.733 384.757 193.467 384.891 193.2C385.024 192.933 385.024 192.8 384.891 192.8C384.891 192.667 384.957 192.6 385.091 192.6V192.4C385.491 191.733 386.024 191.067 386.691 190.4C387.491 189.733 388.157 189.133 388.691 188.6C389.224 188.067 389.824 187.467 390.491 186.8C391.157 186 391.691 185.267 392.091 184.6C392.491 184.2 392.891 183.867 393.291 183.6C393.691 183.333 394.024 183.133 394.291 183C394.557 182.733 394.824 182.467 395.091 182.2C395.757 180.467 397.091 178.933 399.091 177.6C399.224 177.467 399.357 177.333 399.491 177.2C399.091 176.4 399.224 175.933 399.891 175.8C400.691 175.667 401.091 175.6 401.091 175.6C401.491 174.267 402.157 172.933 403.091 171.6C404.157 170.267 405.424 168.733 406.891 167C408.491 165.267 409.624 164 410.291 163.2C410.957 162.533 411.891 161.4 413.091 159.8C414.291 158.067 415.291 156.867 416.091 156.2C417.957 153.933 419.024 152.8 419.291 152.8C419.424 152.933 419.624 152.867 419.891 152.6C420.157 152.333 420.357 152.067 420.491 151.8C420.757 151.4 420.891 151.133 420.891 151C421.024 151.533 421.224 151.4 421.491 150.6C422.024 149.267 422.424 148.533 422.691 148.4C423.357 147.2 424.091 146.467 424.891 146.2C422.757 146.467 419.957 147.533 416.491 149.4C413.024 151.133 410.491 152.2 408.891 152.6C407.024 153.533 405.757 153.6 405.091 152.8C404.957 152.667 404.891 152.6 404.891 152.6C404.491 152.467 403.957 152.733 403.291 153.4C402.757 153.8 402.291 154 401.891 154C401.891 153.867 402.091 153.733 402.491 153.6C403.157 153.333 403.291 153.2 402.891 153.2L399.491 153.8H399.891C399.491 154.2 398.957 154.333 398.291 154.2C397.757 153.933 397.491 153.867 397.491 154C397.224 153.867 396.824 153.867 396.291 154C395.891 154.133 395.691 154 395.691 153.6C394.624 153.467 394.624 153.267 395.691 153L396.691 152.6C396.957 152.467 397.224 152.4 397.491 152.4V152.2C398.024 152.067 398.624 151.867 399.291 151.6C400.091 151.333 400.824 151.133 401.491 151L401.291 150.8L400.091 150.6L399.291 150.4C397.824 150.667 396.691 151.133 395.891 151.8C395.224 152.2 395.091 152.533 395.491 152.8C394.824 152.533 394.357 152.533 394.091 152.8L393.891 152.6C393.491 152.467 393.691 152.267 394.491 152C394.624 151.867 394.891 151.733 395.291 151.6H395.491L395.091 151.4C393.491 152.067 392.691 152.267 392.691 152C392.691 151.867 392.691 151.8 392.691 151.8C392.824 151.533 392.824 151.4 392.691 151.4C392.424 151.533 392.157 151.733 391.891 152C391.757 152.133 391.624 152.267 391.491 152.4C391.357 152.533 391.224 152.667 391.091 152.8C390.824 151.467 391.091 150.4 391.891 149.6C392.157 149.333 392.357 149.333 392.491 149.6L392.691 150.2C392.957 150.2 393.091 150.2 393.091 150.2C393.091 150.067 393.157 150 393.291 150L393.491 149.6C393.757 149.467 394.091 149.267 394.491 149C394.624 149 394.691 149 394.691 149C395.091 148.467 395.424 148.333 395.691 148.6C395.957 148.867 396.424 148.8 397.091 148.4C398.157 147.2 399.224 145.8 400.291 144.2C401.491 142.467 402.424 141.133 403.091 140.2C403.891 139.133 404.491 138.6 404.891 138.6C405.291 138.467 405.624 138.067 405.891 137.4C406.291 136.6 406.691 136.2 407.091 136.2C407.624 135.933 408.091 135.467 408.491 134.8C409.024 134 409.557 133.467 410.091 133.2C410.491 133.333 410.824 133.267 411.091 133C411.491 132.6 411.757 132.333 411.891 132.2C412.024 132.067 412.224 132.133 412.491 132.4C412.757 132.133 413.024 131.933 413.291 131.8C413.691 131.533 414.024 131.333 414.291 131.2C414.691 130.933 415.024 130.667 415.291 130.4C415.557 130.133 415.824 129.867 416.091 129.6C416.357 129.2 416.491 128.8 416.491 128.4L416.691 128.2C416.691 127.8 416.957 127.667 417.491 127.8C418.024 127.8 418.291 127.733 418.291 127.6C418.424 126.933 418.691 126.533 419.091 126.4C419.491 126.133 419.891 125.933 420.291 125.8C420.691 125.533 421.024 125.133 421.291 124.6C421.557 124.333 421.891 124.2 422.291 124.2C422.691 124.067 423.024 124 423.291 124C423.691 123.867 424.024 123.6 424.291 123.2C424.691 122.533 425.291 121.867 426.091 121.2C427.024 120.533 427.757 120.067 428.291 119.8C428.957 119.533 429.891 119.133 431.091 118.6C432.291 118.067 433.024 117.733 433.291 117.6C433.824 116.933 434.424 116.733 435.091 117C435.491 117.267 435.824 117.2 436.091 116.8C436.491 116.267 436.824 116.067 437.091 116.2C437.757 116.467 438.824 116.6 440.291 116.6C441.757 116.6 442.757 116.933 443.291 117.6C450.624 116.8 455.757 118 458.691 121.2ZM397.491 150.4C397.624 150 397.824 149.933 398.091 150.2C397.957 150.067 397.891 150 397.891 150V149.8C397.224 149.933 396.957 150.067 397.091 150.2C397.091 150.333 397.224 150.4 397.491 150.4ZM443.291 73.8C443.157 74.0667 443.291 74.2667 443.691 74.4C443.824 74.1333 443.757 74 443.491 74C443.491 73.8667 443.424 73.8 443.291 73.8ZM439.891 72.2C439.891 72.0667 439.891 72 439.891 72V72.2ZM431.091 103.2L430.691 103.4C430.824 103.533 430.891 103.533 430.891 103.4C431.024 103.4 431.091 103.333 431.091 103.2ZM430.491 102.6L430.291 102C430.291 102.133 430.357 102.333 430.491 102.6ZM371.891 140.6C372.024 140.2 372.091 139.933 372.091 139.8L371.091 141.8L370.891 143C371.024 142.733 371.091 142.533 371.091 142.4H370.891C371.157 142.133 371.291 141.867 371.291 141.6C371.424 141.333 371.491 141.133 371.491 141C371.624 140.733 371.757 140.6 371.891 140.6ZM354.691 204.8C354.691 204.933 354.691 205 354.691 205V204.8ZM355.891 181.2V181.4C355.891 181.4 355.891 181.333 355.891 181.2ZM360.891 165.2C360.891 165.467 360.891 165.6 360.891 165.6V164.6H360.691L360.891 164.8V165.2ZM360.491 171.2C360.624 170.933 360.691 170.667 360.691 170.4L360.891 170V169L360.491 171.6V171.2ZM361.291 167.4V167.6C361.291 167.6 361.291 167.533 361.291 167.4ZM361.091 166.4C361.224 166.4 361.291 166.4 361.291 166.4H361.091ZM361.491 161.6C361.491 160.667 361.557 160.067 361.691 159.8C361.291 159.533 361.024 160.067 360.891 161.4V164.4C361.291 164.267 361.491 163.8 361.491 163C361.491 162.2 361.491 161.733 361.491 161.6ZM361.691 158.6C361.557 158.867 361.491 159.067 361.491 159.2C361.624 158.933 361.691 158.733 361.691 158.6ZM367.891 170.2C367.491 170.6 367.491 170.867 367.891 171C368.291 170.867 368.291 170.6 367.891 170.2ZM369.091 174.4C369.091 174.267 368.824 174.267 368.291 174.4H369.091ZM369.291 176C369.557 175.867 369.757 175.267 369.891 174.2C370.157 173.133 370.357 172.467 370.491 172.2C370.491 171.933 369.891 172.267 368.691 173.2C369.491 173.333 369.757 173.6 369.491 174C369.357 174.4 369.291 174.8 369.291 175.2C369.291 175.467 369.291 175.733 369.291 176ZM369.691 171.8C369.424 171.667 369.224 171.667 369.091 171.8C368.957 171.933 369.091 172 369.491 172H369.691V171.8ZM366.891 168.4C367.024 166.667 368.091 162.133 370.091 154.8V154.6L368.491 158.8C367.824 158.667 367.357 158.933 367.091 159.6C366.957 160.133 366.891 160.933 366.891 162C366.891 162.933 366.824 163.6 366.691 164C366.291 164.933 366.224 165.4 366.491 165.4L366.291 166.8C366.157 166.667 366.091 166.467 366.091 166.2C365.957 166.733 365.891 167.4 365.891 168.2L365.691 168.4L365.491 168.8C364.824 170.133 364.557 170.933 364.691 171.2L365.691 169.2L365.491 169.4V169.6L365.291 171C365.291 171.267 365.357 171.333 365.491 171.2C365.757 170.667 365.891 170.533 365.891 170.8V171.4L366.491 169.4H366.291L366.691 169C366.691 168.867 366.757 168.667 366.891 168.4ZM374.691 202.8C374.691 202.8 374.691 202.867 374.691 203V202.8ZM393.891 206.8L394.091 207L393.891 206.8ZM397.091 203.8L397.291 203.6C397.157 203.067 396.757 203.267 396.091 204.2C395.824 204.6 395.757 204.8 395.891 204.8C396.024 204.8 396.224 204.733 396.491 204.6C396.624 204.2 396.824 203.933 397.091 203.8ZM398.891 193.6V193.8V193.6ZM399.291 201V201.2L399.491 201C399.491 201 399.424 201 399.291 201ZM400.691 199.8L400.891 200L400.691 199.8ZM403.091 197.6L402.891 197.8L403.091 197.6ZM405.891 184.6C405.891 184.467 405.957 184.267 406.091 184C406.357 183.733 406.491 183.6 406.491 183.6C406.491 183.333 406.357 183.4 406.091 183.8H405.891C405.624 184.067 405.291 184.267 404.891 184.4C404.624 184.4 404.491 184.467 404.491 184.6C404.224 184.867 404.024 185.2 403.891 185.6C403.757 185.867 403.624 186.2 403.491 186.6C403.357 186.867 403.157 187.067 402.891 187.2C402.357 187.2 402.224 187.467 402.491 188L402.691 188.4C403.224 187.6 403.557 187.133 403.691 187C403.957 186.733 404.357 186.333 404.891 185.8C405.424 185.133 405.757 184.733 405.891 184.6ZM408.491 175.8H408.691H408.491ZM399.491 244.2C399.491 244.2 399.424 244.2 399.291 244.2H399.491ZM399.091 253.4C399.091 253.667 399.091 253.867 399.091 254V253.8V253.4ZM399.091 252.4C399.224 252.533 399.291 252.6 399.291 252.6V252.4H399.091ZM399.291 251.6L399.491 251.8C399.624 251.667 399.624 251.467 399.491 251.2V251C399.491 251.133 399.424 251.333 399.291 251.6ZM399.491 250H399.691H399.491ZM400.091 244.4V244.6V244.4ZM402.091 249H401.891H402.091ZM400.891 252.8L401.691 250.2C401.291 251 401.024 251.867 400.891 252.8ZM401.291 253.4C401.557 253.133 401.691 252.8 401.691 252.4C401.557 252.667 401.424 253 401.291 253.4ZM401.091 250.4C400.824 250.933 400.757 251.333 400.891 251.6L401.091 250.4ZM400.891 253.4H400.691H400.891ZM400.691 259V259.4V259ZM400.891 256.8C400.624 257.733 400.491 258.2 400.491 258.2C400.491 258.2 400.691 257.933 401.091 257.4C401.224 257.4 401.224 257 401.091 256.2C401.091 256.2 401.024 256.4 400.891 256.8ZM401.891 254.4V254.8V254.4ZM401.891 251.8L402.091 251.4L401.891 251.8ZM402.891 254.8L402.691 255L402.891 254.8ZM443.091 117.8C443.091 117.933 443.091 118 443.091 118V117.8ZM444.291 117.8C444.424 117.8 444.557 117.733 444.691 117.6C444.557 117.6 444.357 117.6 444.091 117.6L444.291 117.8ZM555.723 96.4C555.723 96.6667 555.923 96.8667 556.323 97V97.2C556.323 97.6 556.323 98.7333 556.323 100.6C556.323 102.333 556.19 103.533 555.923 104.2C555.257 108.2 554.457 111.467 553.523 114C552.59 118.267 550.857 122.2 548.323 125.8C546.19 131 543.857 135.067 541.323 138C533.99 147.733 529.723 152.267 528.523 151.6C528.257 151.867 528.257 152.067 528.523 152.2C528.923 152.333 528.857 152.533 528.323 152.8C527.39 153.733 526.323 154.8 525.123 156C523.923 157.2 523.123 158 522.723 158.4C522.59 158.8 522.19 159.267 521.523 159.8C520.99 160.2 520.657 160.467 520.523 160.6C519.857 161.667 519.057 162.467 518.123 163C517.99 163.4 517.79 163.467 517.523 163.2C517.39 163.2 517.323 163.2 517.323 163.2C517.323 163.467 517.323 163.6 517.323 163.6C517.19 163.733 516.99 163.933 516.723 164.2C516.59 164.467 516.39 164.733 516.123 165C515.99 165.267 515.857 165.4 515.723 165.4C515.19 165.533 514.657 166 514.123 166.8C513.59 167.6 513.123 168 512.723 168C511.257 170.267 509.39 171.533 507.123 171.8C507.523 172.2 507.657 172.6 507.523 173C507.257 173.533 507.057 173.6 506.923 173.2C506.923 172.933 507.19 172.467 507.723 171.8C507.323 171.8 506.323 172.867 504.723 175C504.323 175.8 503.59 176.667 502.523 177.6C501.457 178.4 500.857 178.867 500.723 179C500.457 179.133 499.923 179.6 499.123 180.4C498.457 181.067 497.857 181.533 497.323 181.8C496.923 182.467 496.123 183.267 494.923 184.2C493.857 185.133 493.257 185.6 493.123 185.6C493.123 185.6 493.123 185.667 493.123 185.8C493.123 186.067 492.857 186.267 492.323 186.4C492.19 186.533 492.123 186.6 492.123 186.6C491.857 186.867 491.59 187 491.323 187C490.39 187.667 489.523 188.533 488.723 189.6C488.057 190.533 487.523 191.133 487.123 191.4C486.723 191.533 486.39 191.8 486.123 192.2C485.857 192.733 485.123 193.333 483.923 194C483.523 194.533 482.057 195.8 479.523 197.8C479.39 198.2 479.057 198.533 478.523 198.8C478.123 199.067 477.857 199.267 477.723 199.4C476.79 200.467 475.99 201.133 475.323 201.4C472.123 204.6 470.19 206.4 469.523 206.8C467.923 208.533 462.59 213.467 453.523 221.6C452.59 222.133 451.323 223.2 449.723 224.8C448.123 226.533 446.923 227.6 446.123 228C445.59 228.267 445.123 228.733 444.723 229.4C444.323 230.067 443.857 230.4 443.323 230.4V230.6C443.323 231 443.257 231.2 443.123 231.2C442.19 231.867 439.79 234 435.923 237.6C434.59 238.933 433.523 239.733 432.723 240C432.59 240.133 432.39 240.333 432.123 240.6C431.857 240.867 431.59 241.067 431.323 241.2C430.123 242.933 428.657 244.2 426.923 245C426.79 245.267 426.523 245.533 426.123 245.8V246C425.723 246.133 425.39 246.333 425.123 246.6C424.723 246.867 424.457 247.067 424.323 247.2C424.19 247.6 423.923 247.867 423.523 248C423.123 248.133 422.857 248 422.723 247.6V248L422.923 248.2C423.457 248.333 423.257 248.6 422.323 249C421.523 249.533 420.857 250 420.323 250.4C419.657 250.933 419.39 251.267 419.523 251.4C418.723 251.267 418.123 251.667 417.723 252.6C417.723 252.867 417.657 253 417.523 253C416.99 253.267 416.523 253.667 416.123 254.2C415.59 254.867 415.257 255.267 415.123 255.4C414.99 255.4 414.923 255.467 414.923 255.6C413.99 256.4 412.923 257.267 411.723 258.2C410.523 259.133 409.523 259.867 408.723 260.4C407.923 261.067 407.523 261.533 407.523 261.8C407.523 261.933 407.523 262 407.523 262L406.323 261.4L406.523 261.2C405.723 261.467 405.257 261.867 405.123 262.4H405.723C405.323 262.933 404.523 263.333 403.323 263.6C403.057 263.333 402.79 263.333 402.523 263.6C402.523 263.333 402.857 262.867 403.523 262.2C403.657 262.2 403.523 262.2 403.123 262.2C403.39 262.067 403.923 261.533 404.723 260.6C405.39 259.8 405.79 259.467 405.923 259.6C406.19 259.2 406.523 258.733 406.923 258.2C407.323 257.8 407.59 257.467 407.723 257.2C407.99 256.933 408.123 256.8 408.123 256.8L408.523 256.2C409.057 255.533 409.523 255.133 409.923 255C409.79 254.867 409.723 254.8 409.723 254.8C409.59 254.933 409.523 255 409.523 255L409.723 254.8C409.857 254.667 411.857 252 415.723 246.8C415.99 246.667 416.323 246.333 416.723 245.8C416.99 245.267 417.323 244.8 417.723 244.4C417.99 244.133 418.19 244 418.323 244C418.723 243.867 418.99 243.6 419.123 243.2C419.123 242.933 419.19 242.733 419.323 242.6C419.457 242.067 419.723 241.733 420.123 241.6C420.39 241.467 420.59 241.333 420.723 241.2C421.257 239.867 422.323 238.667 423.923 237.6C424.59 236.4 425.723 235 427.323 233.4C428.79 231.8 429.59 230.867 429.723 230.6C429.857 230.467 429.99 230.467 430.123 230.6C430.123 230.733 430.123 230.8 430.123 230.8C430.257 231.2 430.323 231.267 430.323 231V229.8C430.99 228.733 432.057 227.467 433.523 226C434.857 224.667 435.59 223.933 435.723 223.8C436.123 223.8 436.523 223.333 436.923 222.4C437.19 221.6 437.523 221.133 437.923 221C438.323 220.733 438.723 220.333 439.123 219.8C439.39 219.267 439.657 218.867 439.923 218.6C440.19 218.467 440.457 218.4 440.723 218.4C441.123 217.467 441.723 216.667 442.523 216C442.923 216.133 443.19 216.067 443.323 215.8C443.19 215.4 443.39 214.933 443.923 214.4C444.323 214 444.857 213.533 445.523 213C446.19 212.467 446.657 212 446.923 211.6C448.123 210.8 448.923 210 449.323 209.2C449.723 208.267 449.99 207.133 450.123 205.8C450.123 204.467 450.257 203.467 450.523 202.8C450.523 202.4 450.923 200.133 451.723 196C451.857 195.467 452.323 193.8 453.123 191C453.257 190.6 453.39 190.2 453.523 189.8C453.523 189.667 453.523 189.6 453.523 189.6C453.657 189.467 453.79 189.2 453.923 188.8C453.923 188.267 453.99 187.8 454.123 187.4C454.123 187 454.19 186.867 454.323 187C454.723 187 454.79 186.8 454.523 186.4C454.39 186.267 454.323 186.133 454.323 186C454.19 185.867 454.19 185.733 454.323 185.6C455.257 183.867 455.523 182.667 455.123 182C456.323 178.133 457.59 173.467 458.923 168C460.657 160.933 463.457 151.2 467.323 138.8C467.59 138.133 467.657 137.667 467.523 137.4C468.057 136.867 468.39 136.067 468.523 135C468.79 133.8 469.123 133 469.523 132.6C469.657 130.467 470.057 128.267 470.723 126C471.523 123.6 472.457 121.067 473.523 118.4C474.723 115.6 475.523 113.467 475.923 112C476.723 111.867 477.123 111.6 477.123 111.2L476.723 111L476.523 111.2C476.39 111.067 476.39 110.867 476.523 110.6C476.657 110.2 476.857 109.933 477.123 109.8C477.39 109.533 477.523 109.467 477.523 109.6C477.523 108.933 477.723 108.267 478.123 107.6C478.523 106.933 478.923 106.467 479.323 106.2C479.857 105.8 480.257 105.533 480.523 105.4C480.39 105 480.523 104.533 480.923 104C481.457 103.467 481.723 103.2 481.723 103.2C481.99 103.067 482.057 102.8 481.923 102.4H482.123C482.123 102.533 482.19 102.6 482.323 102.6C482.857 102.6 483.19 102.4 483.323 102L483.123 101.6C483.257 101.467 483.457 101.467 483.723 101.6C484.123 101.733 484.323 101.6 484.323 101.2C483.923 101.067 482.523 101.333 480.123 102C475.99 103.2 473.923 103.467 473.923 102.8C473.39 103.467 472.857 103.933 472.323 104.2C471.923 104.333 471.39 104.467 470.723 104.6C470.19 104.733 469.657 104.867 469.123 105C466.323 106.333 463.59 107 460.923 107C460.523 107 460.057 107.467 459.523 108.4C458.99 109.333 458.59 109.8 458.323 109.8C457.39 110.2 456.19 111.067 454.723 112.4C453.257 113.6 452.057 114.2 451.123 114.2C450.59 114.333 450.123 113.867 449.723 112.8C449.19 111.733 448.857 111.133 448.723 111C448.99 112.6 448.723 113.2 447.923 112.8C447.657 112.667 447.257 112.267 446.723 111.6C446.457 111.467 446.257 111.333 446.123 111.2C443.857 110.533 442.19 110.133 441.123 110C439.79 108.533 439.057 107.8 438.923 107.8C438.923 107.8 438.79 107.667 438.523 107.4C438.123 107 437.79 106.533 437.523 106C437.257 105.467 437.057 105.067 436.923 104.8C436.79 103.867 436.99 103.133 437.523 102.6C437.923 101.933 438.123 101.467 438.123 101.2C437.99 100.4 438.39 99.3333 439.323 98C440.257 96.6667 440.723 95.7333 440.723 95.2C440.99 94.9333 441.323 94.6667 441.723 94.4C442.123 94 442.39 93.8 442.523 93.8C442.523 93.8 442.723 93.8667 443.123 94C443.79 93.0667 444.657 92.3333 445.723 91.8C446.79 91.1333 447.39 90.7333 447.523 90.6L448.523 89.6V90C449.323 89.6 449.857 89.3333 450.123 89.2C450.523 88.5333 451.323 88.0667 452.523 87.8C452.79 87.8 452.923 87.8667 452.923 88C453.057 88.1333 453.257 88.1333 453.523 88C453.79 87.8667 453.99 87.8667 454.123 88C454.123 87.7333 454.19 87.6 454.323 87.6C454.457 87.6 454.59 87.6667 454.723 87.8C454.723 87.4 454.857 87.3333 455.123 87.6C455.39 87.7333 455.523 87.8 455.523 87.8C455.79 87.6667 456.19 87.6 456.723 87.6C457.657 87.4667 458.19 87.1333 458.323 86.6C458.457 86.7333 458.523 86.7333 458.523 86.6C458.657 85.9333 458.79 85.6 458.923 85.6C459.057 86.6667 459.457 87.0667 460.123 86.8C460.39 86.6667 460.457 86.2667 460.323 85.6C460.59 85.6 460.857 85.7333 461.123 86C461.523 86.2667 461.723 86.4 461.723 86.4C462.923 86.1333 463.457 85.9333 463.323 85.8C463.057 85.5333 463.057 85.2 463.323 84.8C463.723 84.4 464.057 84.2667 464.323 84.4C464.857 84 465.79 83.9333 467.123 84.2C467.39 84.0667 467.723 83.8667 468.123 83.6C468.523 83.3333 468.79 83.2 468.923 83.2C469.057 83.2 469.39 83.2 469.923 83.2C470.057 83.2 470.323 83.0667 470.723 82.8C471.257 82.5333 471.657 82.3333 471.923 82.2C472.19 82.0667 472.523 82.1333 472.923 82.4C473.323 82.5333 473.723 82.3333 474.123 81.8C474.523 81.2667 474.857 81.2667 475.123 81.8C479.257 80.2 482.257 79.3333 484.123 79.2L483.723 79.4C483.99 79.2667 484.323 79 484.723 78.6C484.723 78.6 484.857 78.6 485.123 78.6C485.923 78.6 486.457 78.8667 486.723 79.4C486.857 79.1333 487.057 79 487.323 79C487.723 78.8667 488.057 78.8 488.323 78.8C488.723 78.8 489.057 78.8 489.323 78.8C489.723 78.8 489.99 78.7333 490.123 78.6C490.39 78.4667 490.457 78.2667 490.323 78C490.457 77.3333 490.857 77.0667 491.523 77.2C491.79 77.2 491.99 77.1333 492.123 77C492.123 77.4 492.457 77.5333 493.123 77.4C493.79 77.1333 494.19 77 494.323 77C495.39 77.2667 497.057 77.2667 499.323 77C501.59 76.7333 503.057 76.6 503.723 76.6C504.39 76.3333 504.523 76.0667 504.123 75.8C503.857 75.5333 504.19 75.1333 505.123 74.6C505.657 74.3333 506.123 74.4 506.523 74.8C506.923 75.0667 507.19 75.2 507.323 75.2C507.59 74.6667 508.123 74.5333 508.923 74.8C509.857 74.9333 510.457 74.9333 510.723 74.8C511.523 74.5333 512.457 74.5333 513.523 74.8C514.723 75.0667 515.523 74.8 515.923 74C516.457 74 517.523 74.1333 519.123 74.4C520.857 74.6667 522.19 74.7333 523.123 74.6C523.79 74.8667 524.457 75.2 525.123 75.6C525.79 76 526.323 76.2667 526.723 76.4C527.257 76.5333 527.79 76.6 528.323 76.6C528.457 76.7333 528.657 76.8 528.923 76.8C529.057 76.9333 529.123 77 529.123 77C536.723 78.4667 541.857 79.9333 544.523 81.4C544.523 81.4 544.657 81.4667 544.923 81.6C545.323 81.7333 545.523 81.8667 545.523 82C546.457 82.4 547.123 82.8667 547.523 83.4C547.79 83.6667 548.323 84.1333 549.123 84.8C549.923 85.3333 550.39 85.8 550.523 86.2C550.79 85.1333 551.657 85.9333 553.123 88.6C553.257 88.8667 553.457 89.2667 553.723 89.8L555.123 91.8C555.257 91.9333 555.39 92.2 555.523 92.6C555.79 92.8667 555.923 93 555.923 93C556.19 93.5333 556.19 94.2 555.923 95C555.79 95.8 555.723 96.2667 555.723 96.4ZM440.923 96.6C441.057 96.6 441.123 96.6 441.123 96.6H440.923ZM441.323 109.4H441.523H441.323ZM461.323 86.6H461.123H461.323ZM404.123 261.8V262L404.323 261.6L404.123 261.8ZM408.723 259C408.857 258.867 408.923 258.8 408.923 258.8L408.723 259ZM406.123 259.6C405.457 259.467 405.057 259.733 404.923 260.4V260.6C405.723 260.067 406.123 259.733 406.123 259.6ZM404.923 262C405.59 261.067 405.99 260.667 406.123 260.8C406.657 260.133 406.857 259.8 406.723 259.8C406.723 259.667 406.723 259.6 406.723 259.6C404.99 261.2 404.39 262 404.923 262ZM406.523 260.8C406.523 260.933 406.523 261 406.523 261V260.8ZM406.723 261.6V261.8V261.6ZM409.323 259.6C409.59 259.6 409.723 259.533 409.723 259.4C409.723 259.4 409.723 259.333 409.723 259.2C409.457 259.2 409.323 259.2 409.323 259.2L409.523 259C409.257 259 408.59 259.267 407.523 259.8C407.257 260.067 407.19 260.267 407.323 260.4C408.657 259.6 409.323 259.333 409.323 259.6ZM412.123 253.8L411.723 254L412.123 253.8ZM410.923 254.8L410.723 255L410.523 255.2C410.79 255.2 410.923 255.067 410.923 254.8ZM410.523 256.6L410.323 256.8V257C410.457 257 410.523 256.867 410.523 256.6ZM410.123 259L410.923 258.2C410.657 258.2 410.457 258.267 410.323 258.4C410.19 258.667 410.123 258.867 410.123 259ZM411.323 255.4C411.057 255.8 410.923 256.133 410.923 256.4C411.323 256 411.457 255.667 411.323 255.4ZM411.723 255.2C411.59 255.2 411.523 255.267 411.523 255.4L411.723 255.2ZM411.923 257.4C411.923 257.4 411.99 257.333 412.123 257.2H411.923V257.4ZM412.523 253.2H412.723H412.523ZM413.123 252.6V252.8V252.6ZM413.523 250C413.657 249.867 413.723 249.8 413.723 249.8L413.523 250ZM417.523 248L417.923 247.8V247.4C417.657 247.4 417.523 247.6 417.523 248ZM421.323 249.4H421.523H421.323ZM450.523 207.6V208C450.39 207.733 450.39 207.533 450.523 207.4V207.6ZM450.523 205.8C450.39 206.067 450.39 206.2 450.523 206.2C450.657 206.2 450.79 206.133 450.923 206C450.923 205.867 450.857 205.8 450.723 205.8C450.59 205.8 450.523 205.8 450.523 205.8ZM450.923 202.2V202.4C451.057 202.4 451.057 202.333 450.923 202.2ZM491.323 77.8L491.723 78L491.923 77.6L491.523 77.8C491.523 77.8 491.457 77.8 491.323 77.8ZM476.323 114C476.323 114 476.257 113.933 476.123 113.8L476.323 114ZM479.323 197.8V198C479.323 198 479.323 197.933 479.323 197.8ZM487.323 171.4C487.323 171.533 487.39 171.533 487.523 171.4H487.323ZM495.723 170.4C495.723 170.533 495.723 170.6 495.723 170.6V170.4ZM532.723 111.8C533.257 111 533.59 109.6 533.723 107.6C533.99 105.467 534.457 104.333 535.123 104.2C535.123 104.067 534.923 103.333 534.523 102C534.123 100.533 534.123 99.7333 534.523 99.6C534.123 99.4667 533.99 99.0667 534.123 98.4C534.257 97.7333 534.257 97.3333 534.123 97.2C533.857 97.0667 533.657 96.8667 533.523 96.6C533.39 96.2 533.323 95.8667 533.323 95.6C533.323 95.3333 533.257 95.0667 533.123 94.8C532.723 94.6667 532.457 94.2667 532.323 93.6C532.323 92.8 532.19 92.3333 531.923 92.2C526.857 91.6667 523.19 91.7333 520.923 92.4L520.723 92.2L520.523 92C520.523 92.9333 519.723 93.0667 518.123 92.4C517.857 92 517.657 91.7333 517.523 91.6C517.123 91.6 516.657 91.6667 516.123 91.8C515.59 91.9333 515.123 92 514.723 92C514.323 92 513.923 92 513.523 92C513.123 92 512.79 92 512.523 92C511.99 92.2667 511.523 92.2 511.123 91.8C510.99 91.6667 510.79 91.9333 510.523 92.6C510.257 93.1333 509.923 93.3333 509.523 93.2H509.323C507.59 93.6 505.79 94.0667 503.923 94.6C502.057 95 499.723 95.6 496.923 96.4C494.123 97.2 491.923 98 490.323 98.8C488.857 99.4667 488.323 100 488.723 100.4C488.857 100.4 488.99 100.333 489.123 100.2C489.39 100.067 489.59 99.9333 489.723 99.8C489.99 99.6667 490.257 99.6 490.523 99.6C490.79 99.4667 491.057 99.5333 491.323 99.8C491.723 99.1333 492.123 99.0667 492.523 99.6C492.523 99.4667 492.457 99.3333 492.323 99.2C492.723 99.2 493.123 99.2 493.523 99.2C494.057 99.2 494.457 99.2667 494.723 99.4C494.99 99.4 495.19 99.4 495.323 99.4C495.59 99.8 495.79 99.8667 495.923 99.6C496.323 99.8667 496.723 100.133 497.123 100.4C497.523 100.667 497.857 100.933 498.123 101.2C498.523 101.467 498.857 101.733 499.123 102C499.523 102.133 499.857 102.333 500.123 102.6C500.123 102.733 499.857 102.8 499.323 102.8C499.057 102.667 499.057 102.733 499.323 103C499.323 103.133 499.457 103.333 499.723 103.6C501.19 105.2 501.723 108.133 501.323 112.4C501.057 116.667 500.19 119.867 498.723 122C498.857 122.8 498.857 123.6 498.723 124.4C498.59 125.067 498.39 125.667 498.123 126.2C497.99 126.6 497.723 127.267 497.323 128.2C497.057 129.133 496.79 129.933 496.523 130.6C495.99 131.667 495.523 132.8 495.123 134C494.723 135.067 494.323 136.067 493.923 137C493.523 137.933 493.057 138.867 492.523 139.8C492.123 141 491.323 142.733 490.123 145C489.057 147.133 488.457 148.333 488.323 148.6C488.19 148.867 487.59 150.333 486.523 153C486.39 153.533 486.057 154.133 485.523 154.8C484.99 155.333 484.523 155.867 484.123 156.4C483.857 156.933 483.723 157.4 483.723 157.8C483.19 159.933 482.057 162.6 480.323 165.8C478.59 168.867 477.523 170.933 477.123 172C476.99 172.267 476.857 172.6 476.723 173V173.2C475.923 174.4 475.19 176 474.523 178C474.39 178.267 474.19 178.467 473.923 178.6H473.723C473.723 178.867 473.723 179.133 473.723 179.4C473.59 180.067 473.323 180.333 472.923 180.2C472.79 180.333 472.723 180.467 472.723 180.6C472.457 180.733 472.123 181.2 471.723 182C471.457 182.8 471.323 183.2 471.323 183.2C471.19 183.2 471.057 183.267 470.923 183.4C471.323 183.933 471.257 184.4 470.723 184.8C470.323 185.2 470.123 185.667 470.123 186.2C470.257 186.6 470.257 186.933 470.123 187.2C469.99 187.333 469.857 187.467 469.723 187.6C469.457 188 469.39 188.2 469.523 188.2L470.523 187.4C471.19 186.6 472.323 185.533 473.923 184.2C475.523 182.867 476.523 181.933 476.923 181.4C477.19 180.867 477.657 180.4 478.323 180C479.123 179.467 479.657 178.867 479.923 178.2C480.057 177.933 480.257 177.867 480.523 178C481.057 177.2 482.19 176 483.923 174.4C485.657 172.667 486.79 171.467 487.323 170.8L488.123 170.2C488.257 169.933 488.523 169.8 488.923 169.8C489.457 169.667 489.657 169.4 489.523 169C489.657 169 489.723 168.933 489.723 168.8C489.857 168.667 489.99 168.533 490.123 168.4C490.257 168 490.39 167.733 490.523 167.6C490.657 167.467 490.857 167.533 491.123 167.8C491.257 167.4 491.457 167.067 491.723 166.8C491.99 166.4 492.257 166.067 492.523 165.8C492.79 165.533 493.057 165.333 493.323 165.2C493.59 164.933 493.857 164.8 494.123 164.8C494.39 164.8 494.59 164.867 494.723 165C495.123 163.8 496.523 162 498.923 159.6C501.457 157.067 503.057 155.4 503.723 154.6C505.99 152.2 507.657 150.4 508.723 149.2C509.523 148.667 510.657 147.733 512.123 146.4C513.723 145.067 514.79 144.267 515.323 144C515.457 142.8 516.457 141.067 518.323 138.8C522.323 133.867 525.523 128.933 527.923 124C528.457 122.933 529.323 121 530.523 118.2C530.657 118.067 530.657 117.933 530.523 117.8C531.057 117 531.457 116.067 531.723 115C532.39 114.067 532.723 113 532.723 111.8ZM492.923 101.8V101.6C492.923 100.667 492.99 100.267 493.123 100.4C492.857 100 492.723 100 492.723 100.4C492.723 100.533 492.723 100.733 492.723 101C492.857 101.267 492.923 101.533 492.923 101.8ZM498.323 101.6C498.19 101.467 498.123 101.467 498.123 101.6H498.323ZM545.323 82.2C545.457 82.3333 545.523 82.4 545.523 82.4C545.523 82.2667 545.457 82.1333 545.323 82C545.19 81.8667 545.19 81.9333 545.323 82.2ZM686.589 68.6C687.656 68.7333 688.656 69.3333 689.589 70.4C689.722 70.6667 689.522 70.8667 688.989 71C688.856 71 688.589 71.0667 688.189 71.2H687.789L686.589 71.8H686.989C687.256 71.8 687.389 71.8 687.389 71.8L686.189 72.2C685.922 72.3333 685.589 72.5333 685.189 72.8L684.789 73C683.989 73.4 683.522 73.5333 683.389 73.4C683.122 73.5333 682.722 73.6667 682.189 73.8C681.789 73.9333 681.389 74.1333 680.989 74.4C680.722 74.5333 680.522 74.6667 680.389 74.8C679.856 74.8 679.456 74.9333 679.189 75.2C678.922 75.4667 678.589 75.6 678.189 75.6C677.256 76 675.989 76.5333 674.389 77.2C672.922 77.8667 671.656 78.4 670.589 78.8C669.656 79.2 668.856 79.4667 668.189 79.6C667.656 80.1333 667.189 80.3333 666.789 80.2C665.989 80.3333 665.056 80.6667 663.989 81.2C663.056 81.6 662.122 82 661.189 82.4C660.389 82.8 659.589 83.2 658.789 83.6C658.122 83.8667 657.522 84 656.989 84C656.589 84 656.322 83.8 656.189 83.4L654.989 83.2C654.989 83.0667 655.122 82.9333 655.389 82.8C642.189 90.5333 631.922 95.4 624.589 97.4C620.056 99.2667 617.122 100.2 615.789 100.2C613.389 101.533 612.322 103.2 612.589 105.2C612.322 105.2 612.122 105.333 611.989 105.6C611.856 105.733 611.922 105.933 612.189 106.2C612.322 106.6 612.256 107.133 611.989 107.8C611.722 108.333 611.789 108.667 612.189 108.8C611.922 110 611.589 111.2 611.189 112.4C610.789 113.467 610.589 114.267 610.589 114.8C610.456 115.333 610.256 115.867 609.989 116.4C609.856 116.8 609.789 117 609.789 117C609.922 117.533 609.456 119.4 608.389 122.6C607.989 123.933 608.189 124.6 608.989 124.6C609.122 124.467 609.322 124.4 609.589 124.4C612.656 124 614.922 124.067 616.389 124.6C618.789 124.2 620.122 124.133 620.389 124.4C620.522 124.133 623.056 123.933 627.989 123.8L631.189 123.4C631.189 123.4 631.056 123.4 630.789 123.4C630.122 123.267 630.322 123.133 631.389 123C631.656 123 631.922 123.067 632.189 123.2C632.456 123.333 632.656 123.533 632.789 123.8C633.056 123.933 633.256 124 633.389 124C633.256 124.267 633.322 124.4 633.589 124.4C633.989 124.4 634.256 124.467 634.389 124.6C634.522 124.6 634.589 124.667 634.589 124.8C634.722 124.8 634.856 124.933 634.989 125.2C635.256 125.6 635.389 125.733 635.389 125.6C635.122 126.267 634.922 126.267 634.789 125.6C634.656 125.867 634.789 126.2 635.189 126.6C635.722 126.867 635.389 127.267 634.189 127.8C632.989 128.733 630.589 130.8 626.989 134C623.389 137.2 620.522 139.4 618.389 140.6C617.589 141 616.789 141.467 615.989 142C615.189 142.4 614.456 142.8 613.789 143.2C613.256 143.467 612.722 143.733 612.189 144C612.189 144.133 612.189 144.2 612.189 144.2C610.856 144.6 609.522 145.2 608.189 146C606.989 146.667 605.989 147.067 605.189 147.2C604.256 147.333 603.256 147.867 602.189 148.8C601.122 149.733 600.389 150.2 599.989 150.2C598.256 153 596.122 157.2 593.589 162.8C591.189 168.4 589.922 171.4 589.789 171.8C589.522 172.733 588.922 173.733 587.989 174.8C587.189 175.733 586.856 176.467 586.989 177C586.856 177.4 586.589 177.8 586.189 178.2C585.789 178.467 585.522 178.667 585.389 178.8C585.256 178.933 585.322 179.133 585.589 179.4C585.456 179.8 585.189 180.067 584.789 180.2C584.389 180.333 584.056 180.6 583.789 181C583.522 181.667 583.256 182.333 582.989 183C582.722 183.533 582.389 184 581.989 184.4C581.722 184.8 581.389 185.333 580.989 186C580.722 186.533 580.456 187.067 580.189 187.6C579.789 188.133 579.456 188.6 579.189 189C578.922 189.4 578.722 189.733 578.589 190C578.456 190.267 578.256 190.6 577.989 191C577.856 191.4 577.722 191.733 577.589 192C577.589 192.133 577.389 192.467 576.989 193C576.722 193.4 576.522 193.867 576.389 194.4C576.256 194.8 576.189 195.133 576.189 195.4C576.722 195.267 576.989 195.267 576.989 195.4C576.722 195.933 576.456 196.133 576.189 196C575.922 195.733 575.789 195.667 575.789 195.8C575.656 196.2 575.656 196.4 575.789 196.4L576.389 196.6C575.989 197.667 575.656 197.933 575.389 197.4C575.256 197.133 575.122 197.067 574.989 197.2C574.989 197.333 575.122 197.533 575.389 197.8C575.789 198.2 575.789 198.467 575.389 198.6C575.122 198.867 574.989 199.2 574.989 199.6C574.989 199.867 574.722 199.8 574.189 199.4V201L573.989 200.8C573.722 200.933 573.589 201 573.589 201C574.122 201.4 574.122 201.667 573.589 201.8C573.189 201.8 573.056 201.867 573.189 202C573.056 202.267 572.856 202.667 572.589 203.2C572.322 203.6 572.122 203.933 571.989 204.2C571.989 204.333 571.922 204.667 571.789 205.2C571.656 205.6 571.656 205.933 571.789 206.2C572.056 206.2 572.189 206.067 572.189 205.8C572.322 205.667 572.589 205.6 572.989 205.6C573.522 205.467 573.856 205.533 573.989 205.8C573.589 205.4 573.456 205.067 573.589 204.8C573.722 204.4 573.856 204.133 573.989 204C574.256 203.867 574.589 203.733 574.989 203.6C575.389 203.333 575.656 203.133 575.789 203C576.456 202.867 577.056 202.4 577.589 201.6C578.256 200.8 578.722 200.333 578.989 200.2C579.256 200.2 579.456 200.067 579.589 199.8C579.856 199.533 579.989 199.333 579.989 199.2C580.122 199.067 580.322 199.067 580.589 199.2C580.856 198.8 581.056 198.533 581.189 198.4C581.456 198.267 581.789 198.2 582.189 198.2C582.589 198.2 582.856 198.2 582.989 198.2C583.256 197.267 583.989 196.6 585.189 196.2C586.389 195.667 586.922 194.933 586.789 194C586.789 194.133 586.722 194.2 586.589 194.2C586.722 194.067 586.789 194.133 586.789 194.4C586.922 194.667 586.922 194.8 586.789 194.8C587.056 194.8 587.189 194.733 587.189 194.6C587.189 194.333 587.189 194.2 587.189 194.2C587.589 194.067 587.789 194 587.789 194C587.922 194.267 588.056 194.267 588.189 194C588.322 193.6 588.522 193.467 588.789 193.6C588.656 193.2 588.922 192.867 589.589 192.6C590.256 192.2 590.589 192 590.589 192C592.456 189.467 594.122 188 595.589 187.6C595.856 187.467 596.122 187.2 596.389 186.8C596.789 186.267 597.122 186 597.389 186C598.589 184.933 599.189 184.4 599.189 184.4C599.456 184.267 599.589 184.2 599.589 184.2C599.722 183.933 600.056 183.8 600.589 183.8C600.589 183.8 600.656 183.667 600.789 183.4C600.922 183.133 600.989 183 600.989 183C601.122 182.867 601.322 182.867 601.589 183C601.722 182.333 602.056 181.867 602.589 181.6L602.789 181.4H602.989C603.789 180.733 604.522 180.4 605.189 180.4C605.589 180 606.056 179.467 606.589 178.8C607.122 178.267 607.389 178.2 607.389 178.6C608.989 176.333 610.456 175.2 611.789 175.2C612.056 175.2 612.189 175.267 612.189 175.4V175.2C611.789 174.8 611.989 174.467 612.789 174.2C613.589 173.933 613.789 173.533 613.389 173C614.456 172.867 614.989 172.867 614.989 173C614.856 172.6 614.856 172.333 614.989 172.2C615.256 171.933 615.522 171.8 615.789 171.8C616.056 171.667 616.189 171.533 616.189 171.4C616.189 171 616.456 170.733 616.989 170.6C617.522 170.467 617.789 170.4 617.789 170.4C618.189 170.133 618.589 169.867 618.989 169.6C619.389 169.2 619.722 168.933 619.989 168.8C620.256 168.533 620.522 168.4 620.789 168.4C622.656 167.067 624.122 166 625.189 165.2C625.589 164.933 625.922 164.667 626.189 164.4C626.456 164.133 626.722 163.933 626.989 163.8C627.256 163.667 627.456 163.533 627.589 163.4C627.856 163.267 628.122 163.067 628.389 162.8C628.656 162.533 628.922 162.267 629.189 162C630.256 161.867 630.922 161.533 631.189 161C631.589 160.467 631.989 160.2 632.389 160.2C632.522 159.667 632.722 159.4 632.989 159.4C633.256 159.4 633.389 159.333 633.389 159.2C635.256 157.867 636.256 157.2 636.389 157.2C636.522 156.933 636.722 156.667 636.989 156.4C637.256 156 637.456 155.733 637.589 155.6C638.256 155.2 639.056 155.133 639.989 155.4C640.922 155 641.522 155.333 641.789 156.4C640.322 157.733 639.522 158.4 639.389 158.4C639.389 158.267 639.389 158.133 639.389 158C638.856 158.533 638.389 159.133 637.989 159.8C637.722 160.333 637.456 160.667 637.189 160.8C637.189 161.067 636.856 161.4 636.189 161.8C635.522 162.2 635.189 162.4 635.189 162.4C635.189 162.533 635.256 162.667 635.389 162.8C635.522 162.933 635.456 163 635.189 163C634.789 163.133 634.389 163.6 633.989 164.4C632.256 166.533 630.722 168 629.389 168.8V169.4C629.389 169.533 629.322 169.667 629.189 169.8C628.522 170.733 628.122 171.067 627.989 170.8C627.722 170.533 627.589 170.4 627.589 170.4C627.456 170.4 627.389 170.533 627.389 170.8C627.522 170.933 627.522 171 627.389 171L626.989 170.6L627.189 171.6V172C627.056 172 626.856 172.2 626.589 172.6C626.322 172.867 625.989 173.2 625.589 173.6C625.322 174 624.989 174.267 624.589 174.4C624.456 174.533 624.256 174.733 623.989 175C623.856 175.133 623.722 175.333 623.589 175.6C623.456 175.733 623.322 175.8 623.189 175.8C620.122 180.067 616.789 183 613.189 184.6C612.522 183.933 612.189 183.8 612.189 184.2C612.189 184.467 612.122 184.667 611.989 184.8C611.989 184.933 612.122 185.067 612.389 185.2C612.922 185.733 613.056 186.133 612.789 186.4C611.989 187.2 611.589 187.6 611.589 187.6C611.322 188.267 611.122 188.267 610.989 187.6C610.856 187.467 610.789 187.333 610.789 187.2L610.589 187.6C610.722 188.4 610.656 188.867 610.389 189C610.122 189 609.922 189.133 609.789 189.4C609.389 189.533 608.722 190 607.789 190.8C606.989 191.467 606.389 191.8 605.989 191.8C605.722 191.933 605.589 192 605.589 192C605.322 191.6 605.189 191.667 605.189 192.2C605.056 191.933 604.989 192 604.989 192.4C604.856 193.067 604.722 193.4 604.589 193.4C604.189 193.667 603.922 193.533 603.789 193C604.189 194.067 604.256 194.8 603.989 195.2C603.722 195.6 603.056 196.133 601.989 196.8C601.056 197.467 600.456 197.867 600.189 198C599.789 198.267 599.456 198.533 599.189 198.8C598.922 199.067 598.589 199.4 598.189 199.8C597.922 200.2 597.656 200.533 597.389 200.8C597.122 201.067 596.856 201.267 596.589 201.4C596.189 201.667 595.789 201.933 595.389 202.2C594.989 202.467 594.722 202.667 594.589 202.8C594.456 202.8 594.322 202.933 594.189 203.2C594.056 203.333 593.922 203.533 593.789 203.8C593.256 203.933 592.856 204.2 592.589 204.6C592.322 205 592.189 205.267 592.189 205.4C589.256 207.8 586.722 209.467 584.589 210.4C584.456 210.533 584.456 210.667 584.589 210.8C584.322 210.933 584.122 210.933 583.989 210.8C583.589 210.267 583.522 209.933 583.789 209.8C584.056 209.667 584.256 209.867 584.389 210.4C584.522 209.6 584.389 209.2 583.989 209.2C583.722 209.2 583.322 209.333 582.789 209.6C582.256 209.867 581.989 210 581.989 210C580.656 210.8 579.922 211.333 579.789 211.6C580.189 211.6 580.189 211.933 579.789 212.6C579.656 213.133 579.722 213.4 579.989 213.4C579.989 213.267 580.122 213.133 580.389 213L581.189 212.4C581.856 211.733 582.456 211.667 582.989 212.2C583.389 212.467 583.256 212.733 582.589 213C582.056 213.4 581.122 213.867 579.789 214.4C578.456 215.067 577.522 215.8 576.989 216.6C576.722 217 575.322 217.733 572.789 218.8C572.256 219.067 572.189 219.267 572.589 219.4C572.456 219.933 572.122 220 571.589 219.6C571.056 219.2 570.789 219 570.789 219C571.322 219.933 571.122 220.467 570.189 220.6C569.389 220.867 568.989 221.067 568.989 221.2C569.656 221.067 570.056 221.067 570.189 221.2C570.322 221.333 570.189 221.467 569.789 221.6C569.389 221.867 569.056 222 568.789 222C568.389 222 567.456 222.2 565.989 222.6C564.522 223.133 563.722 223.067 563.589 222.4C563.722 222.8 563.722 223.067 563.589 223.2C563.456 223.333 563.322 223.4 563.189 223.4C563.189 223.4 563.122 223.4 562.989 223.4C562.722 223 562.189 222.667 561.389 222.4C560.722 222.133 560.322 221.867 560.189 221.6C554.989 221.6 551.722 220.8 550.389 219.2C549.056 217.733 549.122 214.867 550.589 210.6C550.189 210.333 550.122 209.733 550.389 208.8C550.656 207.733 550.789 207.133 550.789 207C550.922 206.6 551.122 206.133 551.389 205.6C551.522 205.067 551.589 204.8 551.589 204.8C552.522 202.133 553.922 197.533 555.789 191C556.989 187.933 557.656 186.333 557.789 186.2C557.656 185.667 557.589 185.333 557.589 185.2C557.722 184.933 557.856 184.6 557.989 184.2C558.256 183.667 558.389 183.333 558.389 183.2C562.789 171.067 565.389 164.267 566.189 162.8C565.522 162.4 565.189 162.133 565.189 162V161.6C564.522 161.467 564.056 161.333 563.789 161.2C563.522 160.933 563.256 160.533 562.989 160C562.722 159.467 562.389 159.067 561.989 158.8C561.589 158.533 560.656 158.133 559.189 157.6C557.722 157.067 556.656 156.533 555.989 156C555.322 155.467 555.256 154.867 555.789 154.2C556.056 153.667 555.989 153.533 555.589 153.8L554.389 154.8C552.656 153.333 551.789 152.533 551.789 152.4C551.656 152.133 551.456 151.8 551.189 151.4C550.522 150.467 550.456 149.867 550.989 149.6C550.989 149.333 551.122 149.067 551.389 148.8C551.522 148.4 551.589 148.133 551.589 148C551.856 147.2 552.589 146.4 553.789 145.6C554.989 144.667 555.789 143.933 556.189 143.4C556.189 143 556.522 142.6 557.189 142.2C557.856 141.8 558.189 141.533 558.189 141.4C558.322 141.133 558.522 141 558.789 141C558.922 141 558.989 140.933 558.989 140.8C564.856 137.2 569.722 134.933 573.589 134C573.722 133.733 573.922 133.6 574.189 133.6C574.589 133.467 574.989 133.4 575.389 133.4C575.922 133.267 576.256 133.133 576.389 133C577.322 132.6 577.922 131.8 578.189 130.6C578.456 129.4 578.656 128.733 578.789 128.6C579.856 126.6 580.456 125.2 580.589 124.4C580.722 124.267 580.789 124.067 580.789 123.8C580.922 123.533 580.989 123.333 580.989 123.2C580.989 122.933 581.056 122.8 581.189 122.8C582.122 121.067 583.056 118.6 583.989 115.4C585.056 112.2 585.922 109.8 586.589 108.2C585.922 108.333 585.056 108.2 583.989 107.8C583.056 107.4 582.389 107.267 581.989 107.4C580.656 107.8 579.522 107.733 578.589 107.2C577.789 106.667 577.056 105.867 576.389 104.8C575.722 103.6 575.189 102.8 574.789 102.4C574.522 101.867 574.122 101.467 573.589 101.2C573.056 100.8 572.456 100.467 571.789 100.2C571.122 99.9333 570.656 99.6 570.389 99.2C569.456 98.4 568.722 97.7333 568.189 97.2C567.789 96.6667 567.389 96.2 566.989 95.8C566.589 95.4 566.522 95 566.789 94.6C567.056 94.0667 567.189 93.7333 567.189 93.6C567.322 93.3333 567.722 92.8 568.389 92C569.189 91.0667 569.789 90.4 570.189 90C570.322 89.8667 570.456 89.7333 570.589 89.6C572.056 89.2 572.856 88.9333 572.989 88.8C573.522 88.5333 573.922 88.3333 574.189 88.2C574.589 88.0667 574.922 88 575.189 88C575.456 87.8667 575.656 87.7333 575.789 87.6C576.322 87.4667 576.722 87.2667 576.989 87C577.256 86.7333 577.456 86.6 577.589 86.6C578.789 87.1333 579.656 87.1333 580.189 86.6C580.856 86.0667 581.522 85.8667 582.189 86C582.856 85.7333 582.856 85.5333 582.189 85.4C582.322 84.8667 582.589 84.5333 582.989 84.4C583.522 84.2667 583.989 84.3333 584.389 84.6C584.789 84.7333 584.989 84.9333 584.989 85.2L585.389 85C585.389 84.6 585.589 84.2667 585.989 84C586.389 83.6 586.856 83.3333 587.389 83.2C587.922 82.9333 588.522 82.7333 589.189 82.6C589.989 82.3333 590.656 82.1333 591.189 82C591.722 81.8667 592.189 81.8 592.589 81.8C593.122 81.6667 593.389 81.6 593.389 81.6C597.922 80.2667 601.056 79.6 602.789 79.6C603.856 79.4667 605.789 78.8 608.589 77.6C614.589 76.9333 618.056 76.4667 618.989 76.2C618.989 76.7333 619.322 76.9333 619.989 76.8L620.189 76.6C620.589 76.8667 621.189 77 621.989 77C622.922 76.8667 623.456 76.8667 623.589 77C624.789 75.6667 626.922 75.1333 629.989 75.4C629.989 75.8 630.122 75.9333 630.389 75.8C630.656 75.5333 630.789 75.4667 630.789 75.6C630.922 75.6 631.122 75.6667 631.389 75.8C631.789 75.8 632.056 75.8667 632.189 76C632.322 75.8667 632.522 75.6667 632.789 75.4C633.056 75.1333 633.256 74.9333 633.389 74.8C633.656 74.6667 633.922 74.5333 634.189 74.4C634.456 74.2667 634.656 74.2667 634.789 74.4C635.056 74.4 635.256 74.5333 635.389 74.8C636.856 74.1333 638.656 73.6667 640.789 73.4C643.056 73.1333 644.789 73.1333 645.989 73.4C646.122 73.4 646.256 73.4667 646.389 73.6C646.522 73.2 646.922 72.8667 647.589 72.6C648.256 72.3333 648.722 72.3333 648.989 72.6C650.189 73 650.789 73.2 650.789 73.2C651.056 72.9333 651.456 72.6667 651.989 72.4C652.522 72 652.989 71.8 653.389 71.8C653.656 71.6667 653.989 71.6 654.389 71.6C654.789 71.4667 655.122 71.4667 655.389 71.6C655.656 71.6 655.856 71.6667 655.989 71.8C656.256 71.8 656.456 71.8 656.589 71.8C656.856 71.8 657.522 71.6667 658.589 71.4C659.656 71 660.389 70.8667 660.789 71C661.722 71.4 662.389 71.4667 662.789 71.2C663.189 70.8 663.656 70.6 664.189 70.6C666.322 70.6 668.256 70.5333 669.989 70.4C671.722 70.1333 673.122 70.0667 674.189 70.2C674.589 70.7333 675.256 70.8 676.189 70.4V70C675.922 69.4667 676.056 69.3333 676.589 69.6C677.522 70.1333 677.989 70.4 677.989 70.4C677.989 70.4 677.922 70.3333 677.789 70.2C676.856 69.8 676.856 69.6 677.789 69.6C678.189 69.6 678.522 69.6 678.789 69.6C679.056 69.3333 680.056 69.1333 681.789 69C683.656 68.8667 684.722 68.7333 684.989 68.6C684.989 68.7333 685.056 68.7333 685.189 68.6C685.589 68.7333 685.789 68.7333 685.789 68.6C685.922 68.4667 686.189 68.4667 686.589 68.6ZM583.389 85.6C583.522 85.6 583.589 85.6 583.589 85.6H583.389ZM639.789 157.2C639.656 157.2 639.589 157.2 639.589 157.2H639.789ZM636.389 159.4H636.189C635.922 159.667 635.856 159.8 635.989 159.8C635.989 159.8 636.122 159.667 636.389 159.4ZM634.789 159.6V159.4V159.6ZM634.389 161.6C634.389 161.6 634.322 161.733 634.189 162C634.056 162.133 633.989 162.2 633.989 162.2L636.189 160H635.989L634.389 161.6ZM611.989 185.8C611.989 185.667 611.989 185.6 611.989 185.6C611.989 185.6 611.922 185.6 611.789 185.6L611.989 185.8ZM604.589 180.8C604.322 180.667 604.189 180.6 604.189 180.6V181H604.389L604.589 180.8ZM601.989 186.8L603.189 185.4C603.189 185.4 603.056 185.467 602.789 185.6C601.989 186.267 601.722 186.667 601.989 186.8ZM602.389 191C601.722 191.267 601.256 191.667 600.989 192.2C600.989 192.333 601.056 192.4 601.189 192.4C601.856 192.133 602.256 191.667 602.389 191ZM599.589 193.4C599.456 193.4 599.322 193.533 599.189 193.8C599.056 193.933 598.989 194 598.989 194L599.189 194.2L600.189 193.2C600.056 193.2 599.856 193.267 599.589 193.4ZM578.789 214.2C579.456 213.667 579.722 213.4 579.589 213.4C579.456 213.4 579.056 213.467 578.389 213.6C578.256 213.867 578.389 214.067 578.789 214.2ZM632.189 123.6C632.189 123.467 632.122 123.333 631.989 123.2L632.189 123.6ZM620.989 132.6L621.189 132.4L620.989 132.6ZM620.789 132.2C620.789 132.067 620.789 132 620.789 132C620.789 132 620.722 132 620.589 132L620.789 132.2ZM619.789 132.8V133C619.922 133 619.922 132.933 619.789 132.8ZM653.389 75.4V75.2C653.256 75.2 653.256 75.2667 653.389 75.4ZM653.389 75C653.256 75 653.189 75 653.189 75H653.389ZM652.189 82.2C652.322 82.0667 652.456 82 652.589 82C652.589 81.2 652.256 81.0667 651.589 81.6C651.322 81.7333 651.322 81.8667 651.589 82C651.722 82.1333 651.922 82.2 652.189 82.2ZM656.389 74.8H656.189H656.389ZM658.189 74.4L657.989 74.6L658.189 74.4ZM659.789 74.2C659.922 74.3333 659.989 74.4 659.989 74.4L659.789 74.2ZM662.589 74H662.789H662.589ZM665.189 73.6L666.789 73.4C667.456 73.4 667.789 73.4 667.789 73.4L668.189 73.2C667.522 73.2 666.522 73.3333 665.189 73.6ZM765.88 30.4C766.946 30.2667 767.613 30.4 767.88 30.8C768.28 31.2 768.413 31.7333 768.28 32.4C768.413 32.5333 768.346 32.8 768.08 33.2V33.4C767.813 33.8 767.08 35.2 765.88 37.6L764.28 40.4V40C764.413 39.8667 764.413 39.7333 764.28 39.6C764.28 39.3333 764.28 39.2 764.28 39.2C764.146 39.4667 764.013 39.8 763.88 40.2C763.88 40.4667 763.813 40.7333 763.68 41C763.68 41.1333 763.68 41.3333 763.68 41.6C763.68 41.7333 763.68 41.8 763.68 41.8C763.28 42.4667 762.68 43.6667 761.88 45.4C761.213 47 760.68 48.0667 760.28 48.6C760.013 49.2667 759.546 50.1333 758.88 51.2C758.48 52.2667 756.88 56 754.08 62.4C753.413 63.8667 753.013 64.6 752.88 64.6C752.88 64.7333 752.88 64.8667 752.88 65C752.48 65.9333 751.68 67.6 750.48 70C749.413 72.4 748.613 74.2 748.08 75.4C747.946 75.5333 747.746 75.7333 747.48 76C747.346 76.1333 747.213 76.3333 747.08 76.6C746.946 76.7333 746.88 76.8667 746.88 77C746.746 77.2667 746.68 77.5333 746.68 77.8C746.68 77.9333 746.613 78.0667 746.48 78.2C746.346 78.6 746.013 79.0667 745.48 79.6C745.08 80 744.88 80.2667 744.88 80.4C745.013 80.6667 744.946 81 744.68 81.4C744.546 81.6667 744.546 81.8 744.68 81.8C743.08 84.0667 741.28 87.6 739.28 92.4C739.013 92.6667 738.746 93 738.48 93.4C738.346 93.8 738.213 94.1333 738.08 94.4C738.08 94.5333 738.013 94.6667 737.88 94.8C737.88 94.9333 737.746 94.9333 737.48 94.8C737.346 94.4 737.146 94.2667 736.88 94.4C737.546 95.6 737.213 97 735.88 98.6C735.48 99.2667 734.613 100.933 733.28 103.6C731.946 106.267 730.813 108.267 729.88 109.6C729.08 110.8 728.546 110.933 728.28 110C728.28 111.333 728.213 112 728.08 112C728.08 112 727.88 111.8 727.48 111.4C728.013 111.133 728.013 110.8 727.48 110.4C727.213 110.267 727.013 110.2 726.88 110.2C726.746 110.067 726.546 110.067 726.28 110.2C726.146 110.2 726.013 110.2 725.88 110.2C726.013 110.733 726.146 111 726.28 111C726.413 111 726.546 110.933 726.68 110.8C726.946 110.533 727.213 110.533 727.48 110.8C726.946 111.067 726.746 111.333 726.88 111.6C727.013 111.733 727.08 111.867 727.08 112C727.213 112.4 727.28 112.667 727.28 112.8C726.88 112.533 726.613 112.4 726.48 112.4C726.48 112.267 726.48 112.467 726.48 113V113.4C726.613 113.4 726.68 113.6 726.68 114C726.68 114.4 726.746 114.533 726.88 114.4C727.013 114.933 727.013 115.2 726.88 115.2C726.48 114.4 726.28 114.267 726.28 114.8C726.28 115.2 726.413 115.467 726.68 115.6C725.08 119.6 723.746 121.867 722.68 122.4C722.546 122.8 722.413 123.2 722.28 123.6C722.28 123.867 722.28 124.067 722.28 124.2C722.28 124.333 722.213 124.467 722.08 124.6C722.08 124.733 722.013 124.867 721.88 125C721.88 125.133 721.746 125.333 721.48 125.6C721.346 125.733 721.146 125.933 720.88 126.2C720.746 126.2 720.613 126.267 720.48 126.4C720.88 126.533 721.013 126.733 720.88 127C720.88 127.133 720.613 127.467 720.08 128C718.613 131.733 717.213 134 715.88 134.8C715.746 136.4 714.88 138.267 713.28 140.4C705.813 152.8 701.28 160.267 699.68 162.8C697.68 166.533 695.88 169 694.28 170.2C694.28 171.267 693.48 172.933 691.88 175.2C690.413 177.333 689.68 178.4 689.68 178.4C688.213 180 687.413 180.8 687.28 180.8C687.28 180.933 687.213 181.267 687.08 181.8C687.08 182.2 687.013 182.533 686.88 182.8C686.88 182.933 686.813 182.933 686.68 182.8C686.146 183.733 684.88 185.667 682.88 188.6C682.613 189 682.213 189.467 681.68 190C681.146 190.4 680.746 190.8 680.48 191.2C680.213 191.467 680.146 191.733 680.28 192C680.013 192.533 679.613 193.133 679.08 193.8C678.68 194.333 678.413 194.667 678.28 194.8C677.746 195.2 676.346 197 674.08 200.2L671.48 203.4L671.68 203.2C669.546 205.6 667.546 207.733 665.68 209.6C663.946 211.333 662.08 212.867 660.08 214.2C658.746 214.467 657.88 214.6 657.48 214.6C657.08 214.6 656.346 214.467 655.28 214.2C654.346 214.067 653.68 214 653.28 214C652.613 213.867 651.613 213.867 650.28 214C648.946 214.133 647.746 214.2 646.68 214.2C645.613 214.333 644.546 214.333 643.48 214.2C642.546 214.067 641.813 213.733 641.28 213.2C640.746 212.8 640.28 212.333 639.88 211.8C639.48 211.133 639.146 210.533 638.88 210C638.613 209.333 638.413 208.6 638.28 207.8C638.013 207 637.813 206.267 637.68 205.6C637.546 204.933 637.48 204.133 637.48 203.2C637.346 202.133 637.28 201.333 637.28 200.8C637.28 200.267 637.346 199.533 637.48 198.6C637.48 197.533 637.48 196.8 637.48 196.4C637.48 196 637.546 195.4 637.68 194.6C637.68 193.667 637.68 193.133 637.68 193H637.48C637.213 193 637.213 192.733 637.48 192.2C637.88 191.8 637.946 191.6 637.68 191.6C637.68 190.8 637.746 189.733 637.88 188.4C638.013 187.067 638.08 186.133 638.08 185.6C638.346 184.533 638.546 183.333 638.68 182C638.813 180.533 638.88 179.6 638.88 179.2C639.413 176.8 640.213 172 641.28 164.8C642.346 157.467 643.413 151.733 644.48 147.6C644.613 146.933 644.88 146 645.28 144.8C645.68 143.467 645.946 142.6 646.08 142.2C647.146 137.933 648.746 132.067 650.88 124.6C653.146 117.133 654.613 111.933 655.28 109C655.946 108.067 656.28 106.8 656.28 105.2C658.413 100.8 659.613 98 659.88 96.8C660.413 96 660.813 95.4 661.08 95C661.48 94.4667 661.946 94.1333 662.48 94C663.146 93.7333 663.613 93.6 663.88 93.6C664.28 93.4667 664.946 93.4 665.88 93.4C666.813 93.2667 667.546 93.2 668.08 93.2C668.48 93.2 669.413 93.2 670.88 93.2C672.346 93.0667 673.546 93.0667 674.48 93.2C675.546 93.3333 676.213 93.6 676.48 94C676.613 94 676.68 94.2 676.68 94.6C676.68 94.8667 676.746 95 676.88 95C677.68 93.5333 678.08 93.5333 678.08 95L677.68 96.2C678.613 95.1333 679.213 94.4667 679.48 94.2C679.88 93.9333 680.146 93.7333 680.28 93.6C680.413 93.4667 680.813 93.5333 681.48 93.8C682.146 94.0667 682.68 94.2667 683.08 94.4L683.28 94.2C683.546 94.4667 683.813 94.7333 684.08 95C684.48 95.2667 684.746 95.4667 684.88 95.6C685.013 95.7333 685.146 95.8667 685.28 96C685.546 96.1333 685.813 96.1333 686.08 96C685.013 95.2 684.68 94.7333 685.08 94.6C685.746 94.4667 686.48 94.9333 687.28 96C687.28 96.2667 687.08 96.3333 686.68 96.2C687.346 97.2667 687.546 98.1333 687.28 98.8C687.28 98.9333 687.346 99 687.48 99C687.746 99.2667 687.88 99.6667 687.88 100.2C687.88 100.6 687.813 101 687.68 101.4C687.68 101.667 687.746 101.8 687.88 101.8C687.613 102.6 687.413 104.267 687.28 106.8C687.28 109.2 687.013 110.6 686.48 111C687.146 112.333 686.88 113.667 685.68 115C686.08 118.067 685.68 119.8 684.48 120.2C685.013 121.133 684.946 122.133 684.28 123.2C684.68 124.133 684.213 125.533 682.88 127.4C682.88 128.333 682.68 129.333 682.28 130.4C681.88 131.467 681.48 132.467 681.08 133.4C680.68 134.2 680.213 135.133 679.68 136.2C679.28 137.133 679.013 138.067 678.88 139C678.213 143.133 676.413 148.333 673.48 154.6C673.48 155.4 673.08 156.667 672.28 158.4C671.613 160 671.213 160.867 671.08 161L668.28 167.4C668.013 167.8 667.88 167.867 667.88 167.6C667.88 167.467 667.946 167.067 668.08 166.4C668.48 166 668.413 165.667 667.88 165.4C667.08 165.533 666.613 165.867 666.48 166.4C666.48 166.933 666.746 167.4 667.28 167.8C666.746 168.6 666.68 169.133 667.08 169.4C667.346 169.533 667.546 169.667 667.68 169.8C667.413 170.067 667.08 170.333 666.68 170.6C666.28 170.733 666.28 171.133 666.68 171.8C667.346 172.867 667.146 173.867 666.08 174.8C665.013 175.6 664.88 176.533 665.68 177.6C665.68 178.133 665.413 178.733 664.88 179.4C664.48 180.067 664.413 180.667 664.68 181.2C664.68 182 664.413 183 663.88 184.2C663.48 185.267 663.28 186 663.28 186.4C663.28 186.667 662.88 187.667 662.08 189.4C662.213 189.933 662.08 190.8 661.68 192C661.413 193.067 661.346 193.8 661.48 194.2C662.013 193.267 662.546 192.6 663.08 192.2C663.746 191.8 664.213 191.667 664.48 191.8C664.88 191.8 665.146 191.733 665.28 191.6C665.413 191.333 665.28 191 664.88 190.6C664.88 190.6 665.013 190.533 665.28 190.4C666.08 190 666.413 189.733 666.28 189.6H665.28C665.68 189.067 666.28 188.8 667.08 188.8C667.48 188.8 667.613 189 667.48 189.4C667.613 189.133 667.68 188.867 667.68 188.6C667.68 188.467 667.746 188.4 667.88 188.4L667.68 188.2C666.88 188.467 666.413 188.533 666.28 188.4C666.28 188.267 666.413 187.867 666.68 187.2C666.946 187.2 667.213 187.067 667.48 186.8C667.746 186.4 668.013 186.2 668.28 186.2C668.946 184.2 669.88 182.667 671.08 181.6C671.346 181.333 671.48 181.333 671.48 181.6C671.48 181.867 671.346 182.333 671.08 183C670.946 183 670.88 183.333 670.88 184C671.013 183.867 671.146 183.667 671.28 183.4C671.546 183 671.746 182.667 671.88 182.4C672.146 182 672.346 181.667 672.48 181.4C672.613 181.133 672.68 181 672.68 181C673.08 180.467 673.48 179.867 673.88 179.2C674.413 178.4 674.813 177.733 675.08 177.2C675.48 176.667 675.88 176.133 676.28 175.6C676.68 174.933 677.013 174.4 677.28 174C677.68 173.6 678.08 173.267 678.48 173C679.013 172.2 679.546 171.4 680.08 170.6C680.613 169.667 681.08 168.867 681.48 168.2C681.88 167.4 682.346 166.533 682.88 165.6C683.413 164.667 683.813 163.933 684.08 163.4C683.946 163.4 683.68 163.533 683.28 163.8C682.48 164.467 682.146 164.267 682.28 163.2C683.08 161.733 683.813 160.933 684.48 160.8C684.346 160.4 684.346 159.867 684.48 159.2C684.613 158.533 685.013 158.333 685.68 158.6L685.88 158.4C685.613 158.133 685.546 157.867 685.68 157.6C685.813 157.2 685.946 156.8 686.08 156.4C686.346 155.867 686.48 155.6 686.48 155.6C686.48 155.467 686.48 155.4 686.48 155.4C686.48 155.267 686.546 155.267 686.68 155.4C686.813 154.733 687.28 154.267 688.08 154C688.88 153.733 689.346 153.4 689.48 153C689.346 152.867 689.346 152.8 689.48 152.8C688.68 153.2 688.346 153 688.48 152.2C688.88 150.467 689.613 149.4 690.68 149C691.48 146.867 692.013 145.733 692.28 145.6C692.413 145.6 692.546 145.667 692.68 145.8C692.146 144.2 693.013 142.467 695.28 140.6C695.413 140.333 695.613 139.733 695.88 138.8C696.146 137.867 696.28 137.333 696.28 137.2C696.413 136.933 696.613 136.733 696.88 136.6C697.146 136.333 697.28 136.133 697.28 136C697.413 135.867 697.613 135.6 697.88 135.2C698.146 134.8 698.28 134.6 698.28 134.6C698.413 134.6 698.68 134.6 699.08 134.6C698.813 134.067 698.813 133.533 699.08 133C699.48 132.467 699.546 132.067 699.28 131.8C699.413 131.667 699.613 131.6 699.88 131.6C700.28 131.6 700.213 131.467 699.68 131.2C699.946 130.933 700.213 131.133 700.48 131.8V132C700.746 131.733 700.813 131.467 700.68 131.2C700.68 130.933 700.813 130.8 701.08 130.8C701.213 130.8 701.28 130.733 701.28 130.6C701.28 130.333 701.413 130.2 701.68 130.2L701.88 129.6C701.613 129.733 701.413 129.6 701.28 129.2C701.413 129.2 701.546 129.133 701.68 129C701.946 128.867 702.08 128.933 702.08 129.2C702.48 129.067 702.68 128.8 702.68 128.4C702.68 128.133 702.746 128 702.88 128C702.88 128 702.68 128.2 702.28 128.6C702.146 128.733 702.146 128.533 702.28 128C702.413 127.733 702.68 127.533 703.08 127.4C702.813 126.067 703.08 124.667 703.88 123.2C704.813 123.333 705.346 123.267 705.48 123C705.613 122.733 705.546 122.467 705.28 122.2C705.013 121.8 704.946 121.467 705.08 121.2C705.213 120.8 705.746 120.533 706.68 120.4C706.546 120.133 706.546 119.8 706.68 119.4C706.946 118.867 707.146 118.4 707.28 118C707.546 117.6 707.813 117.4 708.08 117.4C708.746 115 709.146 113.8 709.28 113.8C713.28 106.6 716.946 100.467 720.28 95.4C720.946 94.7333 721.346 93.9333 721.48 93C721.746 91.9333 722.013 91.1333 722.28 90.6C722.68 90.2 723.013 89.8667 723.28 89.6C723.546 89.4667 723.813 89.0667 724.08 88.4C724.346 88.8 724.413 88.8667 724.28 88.6C724.146 87.9333 724.146 87.6 724.28 87.6C724.546 87.4667 724.813 87.1333 725.08 86.6C725.213 86.4667 725.28 86.4 725.28 86.4C725.546 86 726.08 85.4 726.88 84.6C727.813 84.2 728.68 83.3333 729.48 82C730.413 80.6667 731.28 79.0667 732.08 77.2C733.013 75.3333 733.746 74.0667 734.28 73.4C735.48 71.1333 735.946 70 735.68 70C736.213 69.7333 736.613 69.3333 736.88 68.8C736.613 68.6667 736.48 68.5333 736.48 68.4C736.48 68.1333 736.546 67.8667 736.68 67.6C736.813 67.2 736.946 66.8 737.08 66.4C737.346 66 737.613 65.6667 737.88 65.4C738.146 65.1333 738.413 64.8667 738.68 64.6C738.946 64.2 739.213 63.8667 739.48 63.6C739.746 63.3333 740.013 63.1333 740.28 63C740.546 62.7333 740.68 62.5333 740.68 62.4C740.946 62 741.413 61.4 742.08 60.6C742.746 59.6667 743.146 59 743.28 58.6C743.413 58.3333 743.88 57.6 744.68 56.4C745.613 55.2 746.346 54.3333 746.88 53.8C747.413 52.8667 747.813 52.1333 748.08 51.6C748.346 51.2 748.613 50.8667 748.88 50.6C749.146 50.3333 749.346 50.1333 749.48 50C749.746 49.7333 749.88 49.5333 749.88 49.4C750.28 49.9333 750.88 50.2667 751.68 50.4C751.013 50.4 751.48 49.2 753.08 46.8C751.213 48.9333 751.146 48.7333 752.88 46.2V46C753.146 45.7333 753.346 45.4 753.48 45C753.746 44.6 753.946 44.2667 754.08 44C754.213 43.6 754.346 43.3333 754.48 43.2C755.146 42.6667 755.88 41.7333 756.68 40.4C757.613 39.0667 758.413 38.1333 759.08 37.6C759.08 37.4667 759.213 37.3333 759.48 37.2L759.68 37C759.813 36.7333 759.88 36.5333 759.88 36.4C761.213 35.2 761.813 34.6 761.68 34.6C761.546 34.6 761.213 34.8 760.68 35.2C761.213 34.2667 761.88 33.4667 762.68 32.8C763.48 32 763.946 31.5333 764.08 31.4C764.346 30.6 764.946 30.2667 765.88 30.4ZM666.68 173.2H666.88V173L666.68 173.2ZM665.48 134.4V134.6C665.613 134.6 665.613 134.533 665.48 134.4ZM669.88 139.6L669.68 139.8C669.813 139.8 669.88 139.733 669.88 139.6ZM672.28 133C672.013 133.667 671.68 134.333 671.28 135C670.88 135.533 670.68 135.8 670.68 135.8C669.88 137.933 669.68 138.933 670.08 138.8C670.746 138.4 671.213 137.533 671.48 136.2C671.48 135.533 671.68 135.133 672.08 135C672.613 134.733 672.88 134.467 672.88 134.2C673.546 133.933 673.88 133.733 673.88 133.6C674.013 133.333 673.88 133 673.48 132.6C674.013 131.8 674.28 130.667 674.28 129.2C673.88 129.2 673.546 129.467 673.28 130C673.013 130.533 672.813 131.133 672.68 131.8C672.546 132.333 672.413 132.733 672.28 133ZM666.88 126.8C666.613 127.067 666.413 127.333 666.28 127.6C666.28 127.867 666.28 128.133 666.28 128.4C666.28 128.533 666.213 128.733 666.08 129C666.08 129.133 665.946 129.267 665.68 129.4C665.28 129.533 665.213 129.667 665.48 129.8C665.746 129.933 665.88 130.067 665.88 130.2C665.88 130.6 665.746 131.333 665.48 132.4C665.346 133.067 665.28 133.533 665.28 133.8C665.546 134.2 665.813 134.133 666.08 133.6C666.346 133.067 666.613 132.933 666.88 133.2C667.013 133.467 666.946 134 666.68 134.8C666.413 135.467 666.346 135.933 666.48 136.2C666.346 136.6 666.413 136.867 666.68 137C666.946 137 667.213 136.933 667.48 136.8C667.746 136.667 667.946 136.8 668.08 137.2C668.613 137.733 668.88 137.8 668.88 137.4C669.013 137 669.08 136.733 669.08 136.6C669.346 136.333 669.48 136.067 669.48 135.8C669.48 135.533 669.413 135.267 669.28 135C669.28 134.733 669.213 134.533 669.08 134.4C669.08 134.267 669.013 134.133 668.88 134C668.746 133.733 668.613 133.533 668.48 133.4C669.146 133.4 669.213 133.067 668.68 132.4C668.413 131.867 668.413 131.467 668.68 131.2C669.346 130.667 669.413 129.667 668.88 128.2C669.546 127.8 669.613 127.2 669.08 126.4C668.946 126.267 668.88 126.133 668.88 126C668.746 125.867 668.68 125.8 668.68 125.8C668.813 125.667 669.013 125.6 669.28 125.6C669.546 125.6 669.68 125.467 669.68 125.2C669.68 124.933 669.613 124.667 669.48 124.4C669.48 124 669.546 123.667 669.68 123.4C669.68 122.6 669.68 122.133 669.68 122C669.68 121.867 669.746 121.6 669.88 121.2C670.013 120.667 670.146 120.133 670.28 119.6C670.013 119.867 669.013 121.733 667.28 125.2C667.28 125.6 667.146 125.867 666.88 126C666.88 126.4 667.213 126.6 667.88 126.6L666.88 126.8ZM653.88 213.8C654.146 213.933 654.28 214 654.28 214C654.28 214 654.013 213.867 653.48 213.6L653.88 213.8ZM662.28 212.2L662.08 212.4C662.213 212.267 662.28 212.2 662.28 212.2ZM672.48 182.8V182.6V182.8ZM668.08 187.4V187.2C668.08 187.333 668.08 187.4 668.08 187.4ZM671.08 201.8C670.946 202.2 670.88 202.467 670.88 202.6C671.146 202.6 671.413 202.4 671.68 202C671.68 201.733 671.48 201.667 671.08 201.8ZM667.88 189.6C668.146 189.6 668.613 189 669.28 187.8C670.08 186.6 670.546 186 670.68 186L670.88 185.6L671.88 183.8L671.48 184.2C671.213 184.333 670.88 184.667 670.48 185.2C670.213 185.733 670.013 186 669.88 186C669.746 186.533 669.613 186.867 669.48 187C669.346 186.333 669.146 186 668.88 186C668.88 186.133 668.946 186.4 669.08 186.8L669.28 187.2C668.88 187.6 668.413 188.4 667.88 189.6ZM672.28 200.4C671.613 200.933 671.613 201.2 672.28 201.2C672.546 201.067 672.68 201 672.68 201C672.413 201 672.28 200.8 672.28 200.4ZM675.28 186L675.08 186.4C675.213 186.267 675.28 186.133 675.28 186ZM681.68 172.6C681.28 172.867 681.08 173.133 681.08 173.4C681.08 173.533 680.946 173.8 680.68 174.2C681.346 173.533 681.68 173.067 681.68 172.8C681.68 172.667 681.68 172.6 681.68 172.6ZM682.08 180.2C681.68 181 681.546 181.4 681.68 181.4L683.48 179C683.613 178.733 683.613 178.667 683.48 178.8L682.08 180.2ZM689.48 152.2L689.88 152L690.08 151.6L689.48 152.2ZM699.08 162.8H698.88H699.08ZM699.28 140.4C699.146 140.8 699.213 140.867 699.48 140.6C699.48 140.333 699.413 140.267 699.28 140.4ZM699.68 133.2V133.4C699.813 133.4 699.813 133.333 699.68 133.2ZM717.28 109.4C717.68 108.867 717.813 108.533 717.68 108.4C717.146 109.333 716.88 109.867 716.88 110C716.88 110 716.88 110.133 716.88 110.4C717.013 110.4 717.013 110.4 716.88 110.4C716.88 110.267 717.013 109.933 717.28 109.4ZM721.28 125C721.413 125 721.48 125 721.48 125H721.28ZM724.08 110.4H724.48L724.28 110.2L724.08 110.4ZM727.08 84.8C726.946 84.8 726.88 84.9333 726.88 85.2C727.013 85.3333 727.08 85.2 727.08 84.8ZM725.08 108.6C724.813 108.6 724.813 108.667 725.08 108.8V108.6ZM725.08 117.6H725.28H725.08ZM725.28 115.8C725.146 115.933 725.146 116 725.28 116V115.8ZM725.48 116C725.48 116.267 725.613 116.267 725.88 116H725.48ZM725.68 114.8V114.6C725.546 114.6 725.546 114.667 725.68 114.8ZM728.48 104C729.413 102.533 729.813 101.467 729.68 100.8C729.813 100.133 729.746 99.8 729.48 99.8C729.08 99.9333 728.813 100.2 728.68 100.6C728.546 100.733 728.48 100.8 728.48 100.8C728.346 101.067 727.946 101.867 727.28 103.2C726.613 104.533 726.08 105.467 725.68 106C725.413 106.667 725.28 107.2 725.28 107.6C725.28 107.867 725.346 108.133 725.48 108.4C725.613 108.533 725.613 108.667 725.48 108.8C725.48 108.8 725.28 108.867 724.88 109C725.146 110.2 725.88 109.533 727.08 107C728.013 105 728.48 104 728.48 104ZM750.88 51C750.88 51 750.88 51.0667 750.88 51.2H751.08L750.88 51ZM753.28 53.8H753.48H753.28ZM753.48 53.6C753.613 53.4667 753.68 53.3333 753.68 53.2L753.48 53.6ZM758.48 46V46.8C758.48 46.5333 758.48 46.3333 758.48 46.2C758.48 46.2 758.48 46.1333 758.48 46ZM762.68 33.2C762.946 32.9333 763.013 32.8 762.88 32.8C762.08 33.4667 761.813 33.8667 762.08 34L762.68 33.2Z" fill="white"/>
<path d="M158.03 92.1644V107.126L136.839 96.2817V134.446L230.475 183.743V128.723L158.03 92.1644Z" fill="#E91B35"/>
<path d="M116.639 81.4697V134.446L23 183.743V128.723L116.639 81.4697Z" fill="#800C1D"/>
<path d="M23 128.723L116.639 178.021V231L23 183.743V128.723Z" fill="#E91B35"/>
<path d="M230.475 128.723L136.839 178.021V231L230.475 183.743V128.723Z" fill="#800C1D"/>
<path d="M163.503 83.0491L137.73 69.8652V44.0888L163.503 57.2727V83.0491Z" fill="#E91B35"/>
<path d="M192.594 56.1775L176.599 47.9949V32L192.594 40.1827V56.1775Z" fill="#E91B35"/>
<path d="M203.617 103.278L181.571 92.0019V69.9561L203.617 81.2325V103.278Z" fill="#E91B35"/>
</g>
<defs>
<clipPath id="clip0_1_15">
<rect width="887" height="258" fill="white"/>
</clipPath>
</defs>
</svg>
