<svg xmlns="http://www.w3.org/2000/svg" viewBox="0 0 75.15 65.48">
  <path d="M37.74 69.93c-.25-.06-.51-.07-.56-.39a1 1 0 0 1 .47-.93 12.17 12.17 0 0 0 3-4 14.13 14.13 0 0 0 1.15-6.82 36.26 36.26 0 0 0-3-11.89c-1.6-3.83-3-7.77-3-12.3a29.8 29.8 0 0 1 3.64-14.19A30.74 30.74 0 0 1 49.82 7.86a3.72 3.72 0 0 1 1.4-.59c.67-.09.91.33.56 1a3.08 3.08 0 0 1-.56.81c-3.06 3.26-3.85 7.16-3.22 11.53a33 33 0 0 0 3.45 10c1.47 3 3 5.86 4.26 9a24.92 24.92 0 0 1 1.14 15.67 19.69 19.69 0 0 1-4 7.82c-4.23 5.15-9.35 6.52-14.8 6.9a.93.93 0 0 1-.31-.07z" transform="translate(-2.43 -7.26)" fill="#e5e5e5"></path>
  <path d="M30.83 31.75a21.52 21.52 0 0 0 1.39 12.63c1.19 3 2.77 5.66 3.84 8.7 1.85 5.26.14 11.8-5.3 14.18a13.07 13.07 0 0 1-3.19.93c-.31 0-.66.13-.84-.24s.06-.69.29-1c2.13-2.63 2.12-5.5 1.12-8.48A43.43 43.43 0 0 0 25.36 53c-2.53-5.06-2.33-10.38-.08-15.84a19.62 19.62 0 0 1 4.34-6.49c.34-.35.71-.94 1.19-.64s.11 1 .08 1.46c-.01.06-.04.15-.06.26z" transform="translate(-2.43 -7.26)" fill="#e5e5e5"></path>
  <path d="M77.19 47.76 61.25 25.88a1.1 1.1 0 0 0-1.86 0l-3.46 4.74a2.35 2.35 0 0 0 0 2.57L67.48 49 55.93 64.9a2.33 2.33 0 0 0 0 2.56l3.46 4.75a1.08 1.08 0 0 0 1.86 0l15.94-21.88a2.35 2.35 0 0 0 0-2.57zM2.81 49.62 18.75 71.5a1.08 1.08 0 0 0 1.86 0l3.46-4.75a2.33 2.33 0 0 0 0-2.56L12.52 48.33l11.55-15.85a2.35 2.35 0 0 0 0-2.57l-3.46-4.74a1.1 1.1 0 0 0-1.86 0L2.81 47.05a2.35 2.35 0 0 0 0 2.57z" transform="translate(-2.43 -7.26)" fill="#830213"></path>
</svg>
