<?xml version="1.0" encoding="UTF-8"?>
<svg id="Capa_1" data-name="Capa 1" xmlns="http://www.w3.org/2000/svg" viewBox="0 0 638.45 612.37">
  <defs>
    <style>
      .cls-1 {
        fill: #e91b35;
      }

      .cls-2 {
        fill: #800c1d;
      }
    </style>
  </defs>
  <g>
    <polygon class="cls-1" points="415.52 185.14 415.52 231.18 350.31 197.81 350.31 315.25 638.45 466.95 638.45 297.64 415.52 185.14"/>
    <g>
      <polygon class="cls-2" points="288.15 152.23 288.15 315.25 0 466.95 0 297.64 288.15 152.23"/>
      <polygon class="cls-1" points="0 297.64 288.15 449.34 288.15 612.37 0 466.95 0 297.64"/>
    </g>
    <polygon class="cls-2" points="638.45 297.64 350.31 449.34 350.31 612.37 638.45 466.95 638.45 297.64"/>
  </g>
  <polygon class="cls-1" points="432.36 157.09 353.05 116.52 353.05 37.2 432.36 77.77 432.36 157.09"/>
  <polygon class="cls-1" points="521.88 74.4 472.66 49.22 472.66 0 521.88 25.18 521.88 74.4"/>
  <polygon class="cls-1" points="555.8 219.34 487.96 184.64 487.96 116.8 555.8 151.5 555.8 219.34"/>
</svg>